solid COMSOL rendering object fin
facet normal 0 0 1
outer loop
vertex 0.00150000001303852 0.000500000023748726 0.00147000001743436
vertex 0.00102447171229869 0.00084549147868529 0.00147000001743436
vertex 0.00109549146145582 0.00070610735565424 0.00147000001743436
endloop
endfacet
facet normal 0 0 1
outer loop
vertex 0.00109549146145582 0.00070610735565424 0.00147000001743436
vertex 0.0012061073211953 0.000595491495914757 0.00147000001743436
vertex 0.00150000001303852 0.000500000023748726 0.00147000001743436
endloop
endfacet
facet normal 0 0 1
outer loop
vertex 0.00150000001303852 0.000500000023748726 0.00147000001743436
vertex 0.00102447171229869 0.00115450844168663 0.00147000001743436
vertex 0.00100000004749745 0.00100000004749745 0.00147000001743436
endloop
endfacet
facet normal 0 0 1
outer loop
vertex 0.00100000004749745 0.00100000004749745 0.00147000001743436
vertex 0.00102447171229869 0.00084549147868529 0.00147000001743436
vertex 0.00150000001303852 0.000500000023748726 0.00147000001743436
endloop
endfacet
facet normal 0 0 1
outer loop
vertex 0.00150000001303852 0.000500000023748726 0.00147000001743436
vertex 0.00134549150243402 0.00147552823182195 0.00147000001743436
vertex 0.0012061073211953 0.00140450848266482 0.00147000001743436
endloop
endfacet
facet normal 0 0 1
outer loop
vertex 0.0135000003501773 0.000500000023748726 0.00147000001743436
vertex 0.0139045082032681 0.00129389262292534 0.00147000001743436
vertex 0.0137938922271132 0.00140450848266482 0.00147000001743436
endloop
endfacet
facet normal 0 0 1
outer loop
vertex 0.0139045082032681 0.00070610735565424 0.00147000001743436
vertex 0.0135000003501773 0.000500000023748726 0.00147000001743436
vertex 0.0136545086279511 0.000524471746757627 0.00147000001743436
endloop
endfacet
facet normal 0 0 1
outer loop
vertex 0.00150000001303852 0.000500000023748726 0.00147000001743436
vertex 0.00109549146145582 0.00129389262292534 0.00147000001743436
vertex 0.00102447171229869 0.00115450844168663 0.00147000001743436
endloop
endfacet
facet normal 0 0 1
outer loop
vertex 0.00150000001303852 0.000500000023748726 0.00147000001743436
vertex 0.00150000001303852 0.00150000001303852 0.00147000001743436
vertex 0.00134549150243402 0.00147552823182195 0.00147000001743436
endloop
endfacet
facet normal 0 0 1
outer loop
vertex 0.0137938922271132 0.00140450848266482 0.00147000001743436
vertex 0.0136545086279511 0.00147552823182195 0.00147000001743436
vertex 0.0135000003501773 0.000500000023748726 0.00147000001743436
endloop
endfacet
facet normal 0 0 1
outer loop
vertex 0.0135000003501773 0.000500000023748726 0.00147000001743436
vertex 0.0139755280688405 0.00084549147868529 0.00147000001743436
vertex 0.0140000004321337 0.00100000004749745 0.00147000001743436
endloop
endfacet
facet normal 0 0 1
outer loop
vertex 0.0136545086279511 0.000524471746757627 0.00147000001743436
vertex 0.0137938922271132 0.000595491495914757 0.00147000001743436
vertex 0.0139045082032681 0.00070610735565424 0.00147000001743436
endloop
endfacet
facet normal 0 0 1
outer loop
vertex 0.0135000003501773 0.00150000001303852 0.00147000001743436
vertex 0.00150000001303852 0.00150000001303852 0.00147000001743436
vertex 0.00150000001303852 0.000500000023748726 0.00147000001743436
endloop
endfacet
facet normal 0 0 1
outer loop
vertex 0.0012061073211953 0.00140450848266482 0.00147000001743436
vertex 0.00109549146145582 0.00129389262292534 0.00147000001743436
vertex 0.00150000001303852 0.000500000023748726 0.00147000001743436
endloop
endfacet
facet normal 0 0 1
outer loop
vertex 0.0135000003501773 0.000500000023748726 0.00147000001743436
vertex 0.0139755280688405 0.00115450844168663 0.00147000001743436
vertex 0.0139045082032681 0.00129389262292534 0.00147000001743436
endloop
endfacet
facet normal 0 0 1
outer loop
vertex 0.0139045082032681 0.00070610735565424 0.00147000001743436
vertex 0.0139755280688405 0.00084549147868529 0.00147000001743436
vertex 0.0135000003501773 0.000500000023748726 0.00147000001743436
endloop
endfacet
facet normal 0 0 1
outer loop
vertex 0.0012061073211953 0.000595491495914757 0.00147000001743436
vertex 0.00134549150243402 0.000524471746757627 0.00147000001743436
vertex 0.00150000001303852 0.000500000023748726 0.00147000001743436
endloop
endfacet
facet normal 0 0 1
outer loop
vertex 0.0140000004321337 0.00100000004749745 0.00147000001743436
vertex 0.0139755280688405 0.00115450844168663 0.00147000001743436
vertex 0.0135000003501773 0.000500000023748726 0.00147000001743436
endloop
endfacet
facet normal 0 0 1
outer loop
vertex 0.0136545086279511 0.00147552823182195 0.00147000001743436
vertex 0.0135000003501773 0.00150000001303852 0.00147000001743436
vertex 0.0135000003501773 0.000500000023748726 0.00147000001743436
endloop
endfacet
facet normal 0 0 1
outer loop
vertex 0.00150000001303852 0.000500000023748726 0.00147000001743436
vertex 0.0135000003501773 0.000500000023748726 0.00147000001743436
vertex 0.0135000003501773 0.00150000001303852 0.00147000001743436
endloop
endfacet
endsolid COMSOL rendering object fin
