solid COMSOL rendering object fin
facet normal 0 0 1
outer loop
vertex 0.0012061073211953 0.0155954910442233 0.00147000001743436
vertex 0.00102447171229869 0.0161545090377331 0.00147000001743436
vertex 0.00100000004749745 0.0160000007599592 0.00147000001743436
endloop
endfacet
facet normal 0 0 1
outer loop
vertex 0.0012061073211953 0.0155954910442233 0.00147000001743436
vertex 0.0012061073211953 0.0164045076817274 0.00147000001743436
vertex 0.00109549146145582 0.0162938926368952 0.00147000001743436
endloop
endfacet
facet normal 0 0 1
outer loop
vertex 0.0012061073211953 0.0155954910442233 0.00147000001743436
vertex 0.00150000001303852 0.016499999910593 0.00147000001743436
vertex 0.00134549150243402 0.0164755284786224 0.00147000001743436
endloop
endfacet
facet normal 0 0 1
outer loop
vertex 0.00100000004749745 0.0160000007599592 0.00147000001743436
vertex 0.00102447171229869 0.0158454906195402 0.00147000001743436
vertex 0.0012061073211953 0.0155954910442233 0.00147000001743436
endloop
endfacet
facet normal 0 0 1
outer loop
vertex 0.00134549150243402 0.0164755284786224 0.00147000001743436
vertex 0.0012061073211953 0.0164045076817274 0.00147000001743436
vertex 0.0012061073211953 0.0155954910442233 0.00147000001743436
endloop
endfacet
facet normal 0 0 1
outer loop
vertex 0.0135000003501773 0.016499999910593 0.00147000001743436
vertex 0.0139045082032681 0.0157061070203781 0.00147000001743436
vertex 0.0139755280688405 0.0158454906195402 0.00147000001743436
endloop
endfacet
facet normal 0 0 1
outer loop
vertex 0.00150000001303852 0.016499999910593 0.00147000001743436
vertex 0.0012061073211953 0.0155954910442233 0.00147000001743436
vertex 0.00134549150243402 0.0155244721099734 0.00147000001743436
endloop
endfacet
facet normal 0 0 1
outer loop
vertex 0.00109549146145582 0.0162938926368952 0.00147000001743436
vertex 0.00102447171229869 0.0161545090377331 0.00147000001743436
vertex 0.0012061073211953 0.0155954910442233 0.00147000001743436
endloop
endfacet
facet normal 0 0 1
outer loop
vertex 0.0135000003501773 0.016499999910593 0.00147000001743436
vertex 0.0139045082032681 0.0162938926368952 0.00147000001743436
vertex 0.0137938922271132 0.0164045076817274 0.00147000001743436
endloop
endfacet
facet normal 0 0 1
outer loop
vertex 0.0135000003501773 0.016499999910593 0.00147000001743436
vertex 0.0140000004321337 0.0160000007599592 0.00147000001743436
vertex 0.0139755280688405 0.0161545090377331 0.00147000001743436
endloop
endfacet
facet normal 0 0 1
outer loop
vertex 0.0135000003501773 0.016499999910593 0.00147000001743436
vertex 0.0137938922271132 0.0155954910442233 0.00147000001743436
vertex 0.0139045082032681 0.0157061070203781 0.00147000001743436
endloop
endfacet
facet normal 0 0 1
outer loop
vertex 0.0135000003501773 0.016499999910593 0.00147000001743436
vertex 0.0135000003501773 0.0154999997466803 0.00147000001743436
vertex 0.0136545086279511 0.0155244721099734 0.00147000001743436
endloop
endfacet
facet normal 0 0 1
outer loop
vertex 0.00102447171229869 0.0158454906195402 0.00147000001743436
vertex 0.00109549146145582 0.0157061070203781 0.00147000001743436
vertex 0.0012061073211953 0.0155954910442233 0.00147000001743436
endloop
endfacet
facet normal 0 0 1
outer loop
vertex 0.0135000003501773 0.016499999910593 0.00147000001743436
vertex 0.00150000001303852 0.016499999910593 0.00147000001743436
vertex 0.00150000001303852 0.0154999997466803 0.00147000001743436
endloop
endfacet
facet normal 0 0 1
outer loop
vertex 0.0139755280688405 0.0161545090377331 0.00147000001743436
vertex 0.0139045082032681 0.0162938926368952 0.00147000001743436
vertex 0.0135000003501773 0.016499999910593 0.00147000001743436
endloop
endfacet
facet normal 0 0 1
outer loop
vertex 0.0136545086279511 0.0155244721099734 0.00147000001743436
vertex 0.0137938922271132 0.0155954910442233 0.00147000001743436
vertex 0.0135000003501773 0.016499999910593 0.00147000001743436
endloop
endfacet
facet normal 0 0 1
outer loop
vertex 0.00150000001303852 0.0154999997466803 0.00147000001743436
vertex 0.0135000003501773 0.0154999997466803 0.00147000001743436
vertex 0.0135000003501773 0.016499999910593 0.00147000001743436
endloop
endfacet
facet normal 0 0 1
outer loop
vertex 0.0139755280688405 0.0158454906195402 0.00147000001743436
vertex 0.0140000004321337 0.0160000007599592 0.00147000001743436
vertex 0.0135000003501773 0.016499999910593 0.00147000001743436
endloop
endfacet
facet normal 0 0 1
outer loop
vertex 0.0137938922271132 0.0164045076817274 0.00147000001743436
vertex 0.0136545086279511 0.0164755284786224 0.00147000001743436
vertex 0.0135000003501773 0.016499999910593 0.00147000001743436
endloop
endfacet
facet normal 0 0 1
outer loop
vertex 0.00134549150243402 0.0155244721099734 0.00147000001743436
vertex 0.00150000001303852 0.0154999997466803 0.00147000001743436
vertex 0.00150000001303852 0.016499999910593 0.00147000001743436
endloop
endfacet
endsolid COMSOL rendering object fin
