solid COMSOL rendering object fin
facet normal -1 0 0
outer loop
vertex 0 0 0.000469999999040738
vertex 0 0.017000000923872 0.000469999999040738
vertex 0 0.017000000923872 0
endloop
endfacet
facet normal -1 0 0
outer loop
vertex 0 0.017000000923872 0
vertex 0 0 0
vertex 0 0 0.000469999999040738
endloop
endfacet
facet normal 0 -1 0
outer loop
vertex 0.0149999996647239 0 0
vertex 0.0149999996647239 0 0.000469999999040738
vertex 0 0 0.000469999999040738
endloop
endfacet
facet normal 0 -1 0
outer loop
vertex 0 0 0.000469999999040738
vertex 0 0 0
vertex 0.0149999996647239 0 0
endloop
endfacet
facet normal 0 1 0
outer loop
vertex 0 0.017000000923872 0.000469999999040738
vertex 0.0149999996647239 0.017000000923872 0.000469999999040738
vertex 0.0149999996647239 0.017000000923872 0
endloop
endfacet
facet normal 0 1 0
outer loop
vertex 0.0149999996647239 0.017000000923872 0
vertex 0 0.017000000923872 0
vertex 0 0.017000000923872 0.000469999999040738
endloop
endfacet
facet normal -0.983685493469238 -0.103005670011044 0
outer loop
vertex 0.00100000004749745 0.00100000004749745 0.00147000001743436
vertex 0.00100000004749745 0.00100000004749745 0.000469999999040738
vertex 0.00102447171229869 0.00084549147868529 0.000469999999040738
endloop
endfacet
facet normal -0.903710067272186 -0.401939749717712 0
outer loop
vertex 0.00102447171229869 0.00084549147868529 0.00147000001743436
vertex 0.00102447171229869 0.00084549147868529 0.000469999999040738
vertex 0.00109549146145582 0.00070610735565424 0.000469999999040738
endloop
endfacet
facet normal -0.735273063182831 -0.661529123783112 0
outer loop
vertex 0.00109549146145582 0.00070610735565424 0.00147000001743436
vertex 0.00109549146145582 0.00070610735565424 0.000469999999040738
vertex 0.0012061073211953 0.000595491495914757 0.000469999999040738
endloop
endfacet
facet normal -0.494862467050552 -0.856363534927368 0
outer loop
vertex 0.0012061073211953 0.000595491495914757 0.00147000001743436
vertex 0.0012061073211953 0.000595491495914757 0.000469999999040738
vertex 0.00134549150243402 0.000524471746757627 0.000469999999040738
endloop
endfacet
facet normal -0.206011340022087 -0.967370986938477 0
outer loop
vertex 0.00134549150243402 0.000524471746757627 0.00147000001743436
vertex 0.00134549150243402 0.000524471746757627 0.000469999999040738
vertex 0.00150000001303852 0.000500000023748726 0.000469999999040738
endloop
endfacet
facet normal -0.103005670011044 -0.983685493469238 0
outer loop
vertex 0.00150000001303852 0.000500000023748726 0.000469999999040738
vertex 0.00150000001303852 0.000500000023748726 0.00147000001743436
vertex 0.00134549150243402 0.000524471746757627 0.00147000001743436
endloop
endfacet
facet normal -0.401939749717712 -0.903710067272186 0
outer loop
vertex 0.00134549150243402 0.000524471746757627 0.000469999999040738
vertex 0.00134549150243402 0.000524471746757627 0.00147000001743436
vertex 0.0012061073211953 0.000595491495914757 0.00147000001743436
endloop
endfacet
facet normal -0.661529123783112 -0.735273063182831 0
outer loop
vertex 0.0012061073211953 0.000595491495914757 0.000469999999040738
vertex 0.0012061073211953 0.000595491495914757 0.00147000001743436
vertex 0.00109549146145582 0.00070610735565424 0.00147000001743436
endloop
endfacet
facet normal -0.856363534927368 -0.494862467050552 0
outer loop
vertex 0.00109549146145582 0.00070610735565424 0.000469999999040738
vertex 0.00109549146145582 0.00070610735565424 0.00147000001743436
vertex 0.00102447171229869 0.00084549147868529 0.00147000001743436
endloop
endfacet
facet normal -0.967370986938477 -0.206011340022087 0
outer loop
vertex 0.00102447171229869 0.00084549147868529 0.000469999999040738
vertex 0.00102447171229869 0.00084549147868529 0.00147000001743436
vertex 0.00100000004749745 0.00100000004749745 0.00147000001743436
endloop
endfacet
facet normal -0.983685493469238 0.103005670011044 0
outer loop
vertex 0.00100000004749745 0.00100000004749745 0.000469999999040738
vertex 0.00100000004749745 0.00100000004749745 0.00147000001743436
vertex 0.00102447171229869 0.00115450844168663 0.00147000001743436
endloop
endfacet
facet normal -0.903710067272186 0.401939749717712 0
outer loop
vertex 0.00102447171229869 0.00115450844168663 0.000469999999040738
vertex 0.00102447171229869 0.00115450844168663 0.00147000001743436
vertex 0.00109549146145582 0.00129389262292534 0.00147000001743436
endloop
endfacet
facet normal -0.735273063182831 0.661529123783112 0
outer loop
vertex 0.00109549146145582 0.00129389262292534 0.000469999999040738
vertex 0.00109549146145582 0.00129389262292534 0.00147000001743436
vertex 0.0012061073211953 0.00140450848266482 0.00147000001743436
endloop
endfacet
facet normal -0.494862467050552 0.856363534927368 0
outer loop
vertex 0.0012061073211953 0.00140450848266482 0.000469999999040738
vertex 0.0012061073211953 0.00140450848266482 0.00147000001743436
vertex 0.00134549150243402 0.00147552823182195 0.00147000001743436
endloop
endfacet
facet normal -0.206011340022087 0.967370986938477 0
outer loop
vertex 0.00134549150243402 0.00147552823182195 0.000469999999040738
vertex 0.00134549150243402 0.00147552823182195 0.00147000001743436
vertex 0.00150000001303852 0.00150000001303852 0.00147000001743436
endloop
endfacet
facet normal -0.103005670011044 0.983685493469238 0
outer loop
vertex 0.00150000001303852 0.00150000001303852 0.00147000001743436
vertex 0.00150000001303852 0.00150000001303852 0.000469999999040738
vertex 0.00134549150243402 0.00147552823182195 0.000469999999040738
endloop
endfacet
facet normal -0.401939749717712 0.903710067272186 0
outer loop
vertex 0.00134549150243402 0.00147552823182195 0.00147000001743436
vertex 0.00134549150243402 0.00147552823182195 0.000469999999040738
vertex 0.0012061073211953 0.00140450848266482 0.000469999999040738
endloop
endfacet
facet normal -0.661529123783112 0.735273063182831 0
outer loop
vertex 0.0012061073211953 0.00140450848266482 0.00147000001743436
vertex 0.0012061073211953 0.00140450848266482 0.000469999999040738
vertex 0.00109549146145582 0.00129389262292534 0.000469999999040738
endloop
endfacet
facet normal -0.856363534927368 0.494862467050552 0
outer loop
vertex 0.00109549146145582 0.00129389262292534 0.00147000001743436
vertex 0.00109549146145582 0.00129389262292534 0.000469999999040738
vertex 0.00102447171229869 0.00115450844168663 0.000469999999040738
endloop
endfacet
facet normal -0.967370986938477 0.206011340022087 0
outer loop
vertex 0.00102447171229869 0.00115450844168663 0.00147000001743436
vertex 0.00102447171229869 0.00115450844168663 0.000469999999040738
vertex 0.00100000004749745 0.00100000004749745 0.000469999999040738
endloop
endfacet
facet normal -0.983685493469238 -0.103005670011044 0
outer loop
vertex 0.00100000004749745 0.0160000007599592 0.00147000001743436
vertex 0.00100000004749745 0.0160000007599592 0.000469999999040738
vertex 0.00102447171229869 0.0158454906195402 0.000469999999040738
endloop
endfacet
facet normal -0.903710067272186 -0.401939749717712 0
outer loop
vertex 0.00102447171229869 0.0158454906195402 0.00147000001743436
vertex 0.00102447171229869 0.0158454906195402 0.000469999999040738
vertex 0.00109549146145582 0.0157061070203781 0.000469999999040738
endloop
endfacet
facet normal -0.735273063182831 -0.661529123783112 0
outer loop
vertex 0.00109549146145582 0.0157061070203781 0.00147000001743436
vertex 0.00109549146145582 0.0157061070203781 0.000469999999040738
vertex 0.0012061073211953 0.0155954910442233 0.000469999999040738
endloop
endfacet
facet normal -0.494862467050552 -0.856363534927368 0
outer loop
vertex 0.0012061073211953 0.0155954910442233 0.00147000001743436
vertex 0.0012061073211953 0.0155954910442233 0.000469999999040738
vertex 0.00134549150243402 0.0155244721099734 0.000469999999040738
endloop
endfacet
facet normal -0.206011340022087 -0.967370986938477 0
outer loop
vertex 0.00134549150243402 0.0155244721099734 0.00147000001743436
vertex 0.00134549150243402 0.0155244721099734 0.000469999999040738
vertex 0.00150000001303852 0.0154999997466803 0.000469999999040738
endloop
endfacet
facet normal -0.103005670011044 -0.983685493469238 0
outer loop
vertex 0.00150000001303852 0.0154999997466803 0.000469999999040738
vertex 0.00150000001303852 0.0154999997466803 0.00147000001743436
vertex 0.00134549150243402 0.0155244721099734 0.00147000001743436
endloop
endfacet
facet normal -0.401939749717712 -0.903710067272186 0
outer loop
vertex 0.00134549150243402 0.0155244721099734 0.000469999999040738
vertex 0.00134549150243402 0.0155244721099734 0.00147000001743436
vertex 0.0012061073211953 0.0155954910442233 0.00147000001743436
endloop
endfacet
facet normal -0.661529123783112 -0.735273063182831 0
outer loop
vertex 0.0012061073211953 0.0155954910442233 0.000469999999040738
vertex 0.0012061073211953 0.0155954910442233 0.00147000001743436
vertex 0.00109549146145582 0.0157061070203781 0.00147000001743436
endloop
endfacet
facet normal -0.856363534927368 -0.494862467050552 0
outer loop
vertex 0.00109549146145582 0.0157061070203781 0.000469999999040738
vertex 0.00109549146145582 0.0157061070203781 0.00147000001743436
vertex 0.00102447171229869 0.0158454906195402 0.00147000001743436
endloop
endfacet
facet normal -0.967370986938477 -0.206011340022087 0
outer loop
vertex 0.00102447171229869 0.0158454906195402 0.000469999999040738
vertex 0.00102447171229869 0.0158454906195402 0.00147000001743436
vertex 0.00100000004749745 0.0160000007599592 0.00147000001743436
endloop
endfacet
facet normal -0.983685493469238 0.103005670011044 0
outer loop
vertex 0.00100000004749745 0.0160000007599592 0.000469999999040738
vertex 0.00100000004749745 0.0160000007599592 0.00147000001743436
vertex 0.00102447171229869 0.0161545090377331 0.00147000001743436
endloop
endfacet
facet normal -0.903710067272186 0.401939749717712 0
outer loop
vertex 0.00102447171229869 0.0161545090377331 0.000469999999040738
vertex 0.00102447171229869 0.0161545090377331 0.00147000001743436
vertex 0.00109549146145582 0.0162938926368952 0.00147000001743436
endloop
endfacet
facet normal -0.735273063182831 0.661529123783112 0
outer loop
vertex 0.00109549146145582 0.0162938926368952 0.000469999999040738
vertex 0.00109549146145582 0.0162938926368952 0.00147000001743436
vertex 0.0012061073211953 0.0164045076817274 0.00147000001743436
endloop
endfacet
facet normal -0.494862467050552 0.856363534927368 0
outer loop
vertex 0.0012061073211953 0.0164045076817274 0.000469999999040738
vertex 0.0012061073211953 0.0164045076817274 0.00147000001743436
vertex 0.00134549150243402 0.0164755284786224 0.00147000001743436
endloop
endfacet
facet normal -0.206011340022087 0.967370986938477 0
outer loop
vertex 0.00134549150243402 0.0164755284786224 0.000469999999040738
vertex 0.00134549150243402 0.0164755284786224 0.00147000001743436
vertex 0.00150000001303852 0.016499999910593 0.00147000001743436
endloop
endfacet
facet normal -0.103005670011044 0.983685493469238 0
outer loop
vertex 0.00150000001303852 0.016499999910593 0.00147000001743436
vertex 0.00150000001303852 0.016499999910593 0.000469999999040738
vertex 0.00134549150243402 0.0164755284786224 0.000469999999040738
endloop
endfacet
facet normal -0.401939749717712 0.903710067272186 0
outer loop
vertex 0.00134549150243402 0.0164755284786224 0.00147000001743436
vertex 0.00134549150243402 0.0164755284786224 0.000469999999040738
vertex 0.0012061073211953 0.0164045076817274 0.000469999999040738
endloop
endfacet
facet normal -0.661529123783112 0.735273063182831 0
outer loop
vertex 0.0012061073211953 0.0164045076817274 0.00147000001743436
vertex 0.0012061073211953 0.0164045076817274 0.000469999999040738
vertex 0.00109549146145582 0.0162938926368952 0.000469999999040738
endloop
endfacet
facet normal -0.856363534927368 0.494862467050552 0
outer loop
vertex 0.00109549146145582 0.0162938926368952 0.00147000001743436
vertex 0.00109549146145582 0.0162938926368952 0.000469999999040738
vertex 0.00102447171229869 0.0161545090377331 0.000469999999040738
endloop
endfacet
facet normal -0.967370986938477 0.206011340022087 0
outer loop
vertex 0.00102447171229869 0.0161545090377331 0.00147000001743436
vertex 0.00102447171229869 0.0161545090377331 0.000469999999040738
vertex 0.00100000004749745 0.0160000007599592 0.000469999999040738
endloop
endfacet
facet normal 1.83697027887775e-16 -1 0
outer loop
vertex 0.0135000003501773 0.000500000023748726 0.000469999999040738
vertex 0.0135000003501773 0.000500000023748726 0.00147000001743436
vertex 0.00150000001303852 0.000500000023748726 0.00147000001743436
endloop
endfacet
facet normal 1.83697027887775e-16 -1 0
outer loop
vertex 0.00150000001303852 0.000500000023748726 0.00147000001743436
vertex 0.00150000001303852 0.000500000023748726 0.000469999999040738
vertex 0.0135000003501773 0.000500000023748726 0.000469999999040738
endloop
endfacet
facet normal 0 1 0
outer loop
vertex 0.00150000001303852 0.00150000001303852 0.00147000001743436
vertex 0.0135000003501773 0.00150000001303852 0.00147000001743436
vertex 0.0135000003501773 0.00150000001303852 0.000469999999040738
endloop
endfacet
facet normal 0 1 0
outer loop
vertex 0.0135000003501773 0.00150000001303852 0.000469999999040738
vertex 0.00150000001303852 0.00150000001303852 0.000469999999040738
vertex 0.00150000001303852 0.00150000001303852 0.00147000001743436
endloop
endfacet
facet normal 0 -1 0
outer loop
vertex 0.0135000003501773 0.0154999997466803 0.000469999999040738
vertex 0.0135000003501773 0.0154999997466803 0.00147000001743436
vertex 0.00150000001303852 0.0154999997466803 0.00147000001743436
endloop
endfacet
facet normal 0 -1 0
outer loop
vertex 0.00150000001303852 0.0154999997466803 0.00147000001743436
vertex 0.00150000001303852 0.0154999997466803 0.000469999999040738
vertex 0.0135000003501773 0.0154999997466803 0.000469999999040738
endloop
endfacet
facet normal 0 1 0
outer loop
vertex 0.00150000001303852 0.016499999910593 0.00147000001743436
vertex 0.0135000003501773 0.016499999910593 0.00147000001743436
vertex 0.0135000003501773 0.016499999910593 0.000469999999040738
endloop
endfacet
facet normal 0 1 0
outer loop
vertex 0.0135000003501773 0.016499999910593 0.000469999999040738
vertex 0.00150000001303852 0.016499999910593 0.000469999999040738
vertex 0.00150000001303852 0.016499999910593 0.00147000001743436
endloop
endfacet
facet normal 0.983685493469238 -0.103005670011044 0
outer loop
vertex 0.0140000004321337 0.00100000004749745 0.000469999999040738
vertex 0.0140000004321337 0.00100000004749745 0.00147000001743436
vertex 0.0139755280688405 0.00084549147868529 0.00147000001743436
endloop
endfacet
facet normal 0.903710067272186 -0.401939749717712 0
outer loop
vertex 0.0139755280688405 0.00084549147868529 0.000469999999040738
vertex 0.0139755280688405 0.00084549147868529 0.00147000001743436
vertex 0.0139045082032681 0.00070610735565424 0.00147000001743436
endloop
endfacet
facet normal 0.735273063182831 -0.661529123783112 0
outer loop
vertex 0.0139045082032681 0.00070610735565424 0.000469999999040738
vertex 0.0139045082032681 0.00070610735565424 0.00147000001743436
vertex 0.0137938922271132 0.000595491495914757 0.00147000001743436
endloop
endfacet
facet normal 0.494862467050552 -0.856363534927368 0
outer loop
vertex 0.0137938922271132 0.000595491495914757 0.000469999999040738
vertex 0.0137938922271132 0.000595491495914757 0.00147000001743436
vertex 0.0136545086279511 0.000524471746757627 0.00147000001743436
endloop
endfacet
facet normal 0.206011340022087 -0.967370986938477 0
outer loop
vertex 0.0136545086279511 0.000524471746757627 0.000469999999040738
vertex 0.0136545086279511 0.000524471746757627 0.00147000001743436
vertex 0.0135000003501773 0.000500000023748726 0.00147000001743436
endloop
endfacet
facet normal 0.103005670011044 -0.983685493469238 0
outer loop
vertex 0.0135000003501773 0.000500000023748726 0.00147000001743436
vertex 0.0135000003501773 0.000500000023748726 0.000469999999040738
vertex 0.0136545086279511 0.000524471746757627 0.000469999999040738
endloop
endfacet
facet normal 0.401939749717712 -0.903710067272186 0
outer loop
vertex 0.0136545086279511 0.000524471746757627 0.00147000001743436
vertex 0.0136545086279511 0.000524471746757627 0.000469999999040738
vertex 0.0137938922271132 0.000595491495914757 0.000469999999040738
endloop
endfacet
facet normal 0.661529123783112 -0.735273063182831 0
outer loop
vertex 0.0137938922271132 0.000595491495914757 0.00147000001743436
vertex 0.0137938922271132 0.000595491495914757 0.000469999999040738
vertex 0.0139045082032681 0.00070610735565424 0.000469999999040738
endloop
endfacet
facet normal 0.856363534927368 -0.494862467050552 0
outer loop
vertex 0.0139045082032681 0.00070610735565424 0.00147000001743436
vertex 0.0139045082032681 0.00070610735565424 0.000469999999040738
vertex 0.0139755280688405 0.00084549147868529 0.000469999999040738
endloop
endfacet
facet normal 0.967370986938477 -0.206011340022087 0
outer loop
vertex 0.0139755280688405 0.00084549147868529 0.00147000001743436
vertex 0.0139755280688405 0.00084549147868529 0.000469999999040738
vertex 0.0140000004321337 0.00100000004749745 0.000469999999040738
endloop
endfacet
facet normal 0.983685493469238 0.103005670011044 0
outer loop
vertex 0.0140000004321337 0.00100000004749745 0.00147000001743436
vertex 0.0140000004321337 0.00100000004749745 0.000469999999040738
vertex 0.0139755280688405 0.00115450844168663 0.000469999999040738
endloop
endfacet
facet normal 0.903710067272186 0.401939749717712 0
outer loop
vertex 0.0139755280688405 0.00115450844168663 0.00147000001743436
vertex 0.0139755280688405 0.00115450844168663 0.000469999999040738
vertex 0.0139045082032681 0.00129389262292534 0.000469999999040738
endloop
endfacet
facet normal 0.735273063182831 0.661529123783112 0
outer loop
vertex 0.0139045082032681 0.00129389262292534 0.00147000001743436
vertex 0.0139045082032681 0.00129389262292534 0.000469999999040738
vertex 0.0137938922271132 0.00140450848266482 0.000469999999040738
endloop
endfacet
facet normal 0.494862467050552 0.856363534927368 0
outer loop
vertex 0.0137938922271132 0.00140450848266482 0.00147000001743436
vertex 0.0137938922271132 0.00140450848266482 0.000469999999040738
vertex 0.0136545086279511 0.00147552823182195 0.000469999999040738
endloop
endfacet
facet normal 0.206011340022087 0.967370986938477 0
outer loop
vertex 0.0136545086279511 0.00147552823182195 0.00147000001743436
vertex 0.0136545086279511 0.00147552823182195 0.000469999999040738
vertex 0.0135000003501773 0.00150000001303852 0.000469999999040738
endloop
endfacet
facet normal 0.103005670011044 0.983685493469238 0
outer loop
vertex 0.0135000003501773 0.00150000001303852 0.000469999999040738
vertex 0.0135000003501773 0.00150000001303852 0.00147000001743436
vertex 0.0136545086279511 0.00147552823182195 0.00147000001743436
endloop
endfacet
facet normal 0.401939749717712 0.903710067272186 0
outer loop
vertex 0.0136545086279511 0.00147552823182195 0.000469999999040738
vertex 0.0136545086279511 0.00147552823182195 0.00147000001743436
vertex 0.0137938922271132 0.00140450848266482 0.00147000001743436
endloop
endfacet
facet normal 0.661529123783112 0.735273063182831 0
outer loop
vertex 0.0137938922271132 0.00140450848266482 0.000469999999040738
vertex 0.0137938922271132 0.00140450848266482 0.00147000001743436
vertex 0.0139045082032681 0.00129389262292534 0.00147000001743436
endloop
endfacet
facet normal 0.856363534927368 0.494862467050552 0
outer loop
vertex 0.0139045082032681 0.00129389262292534 0.000469999999040738
vertex 0.0139045082032681 0.00129389262292534 0.00147000001743436
vertex 0.0139755280688405 0.00115450844168663 0.00147000001743436
endloop
endfacet
facet normal 0.967370986938477 0.206011340022087 0
outer loop
vertex 0.0139755280688405 0.00115450844168663 0.000469999999040738
vertex 0.0139755280688405 0.00115450844168663 0.00147000001743436
vertex 0.0140000004321337 0.00100000004749745 0.00147000001743436
endloop
endfacet
facet normal 0.983685493469238 -0.103005670011044 0
outer loop
vertex 0.0140000004321337 0.0160000007599592 0.000469999999040738
vertex 0.0140000004321337 0.0160000007599592 0.00147000001743436
vertex 0.0139755280688405 0.0158454906195402 0.00147000001743436
endloop
endfacet
facet normal 0.903710067272186 -0.401939749717712 0
outer loop
vertex 0.0139755280688405 0.0158454906195402 0.000469999999040738
vertex 0.0139755280688405 0.0158454906195402 0.00147000001743436
vertex 0.0139045082032681 0.0157061070203781 0.00147000001743436
endloop
endfacet
facet normal 0.735273063182831 -0.661529123783112 0
outer loop
vertex 0.0139045082032681 0.0157061070203781 0.000469999999040738
vertex 0.0139045082032681 0.0157061070203781 0.00147000001743436
vertex 0.0137938922271132 0.0155954910442233 0.00147000001743436
endloop
endfacet
facet normal 0.494862467050552 -0.856363534927368 0
outer loop
vertex 0.0137938922271132 0.0155954910442233 0.000469999999040738
vertex 0.0137938922271132 0.0155954910442233 0.00147000001743436
vertex 0.0136545086279511 0.0155244721099734 0.00147000001743436
endloop
endfacet
facet normal 0.206011340022087 -0.967370986938477 0
outer loop
vertex 0.0136545086279511 0.0155244721099734 0.000469999999040738
vertex 0.0136545086279511 0.0155244721099734 0.00147000001743436
vertex 0.0135000003501773 0.0154999997466803 0.00147000001743436
endloop
endfacet
facet normal 0.103005670011044 -0.983685493469238 0
outer loop
vertex 0.0135000003501773 0.0154999997466803 0.00147000001743436
vertex 0.0135000003501773 0.0154999997466803 0.000469999999040738
vertex 0.0136545086279511 0.0155244721099734 0.000469999999040738
endloop
endfacet
facet normal 0.401939749717712 -0.903710067272186 0
outer loop
vertex 0.0136545086279511 0.0155244721099734 0.00147000001743436
vertex 0.0136545086279511 0.0155244721099734 0.000469999999040738
vertex 0.0137938922271132 0.0155954910442233 0.000469999999040738
endloop
endfacet
facet normal 0.661529123783112 -0.735273063182831 0
outer loop
vertex 0.0137938922271132 0.0155954910442233 0.00147000001743436
vertex 0.0137938922271132 0.0155954910442233 0.000469999999040738
vertex 0.0139045082032681 0.0157061070203781 0.000469999999040738
endloop
endfacet
facet normal 0.856363534927368 -0.494862467050552 0
outer loop
vertex 0.0139045082032681 0.0157061070203781 0.00147000001743436
vertex 0.0139045082032681 0.0157061070203781 0.000469999999040738
vertex 0.0139755280688405 0.0158454906195402 0.000469999999040738
endloop
endfacet
facet normal 0.967370986938477 -0.206011340022087 0
outer loop
vertex 0.0139755280688405 0.0158454906195402 0.00147000001743436
vertex 0.0139755280688405 0.0158454906195402 0.000469999999040738
vertex 0.0140000004321337 0.0160000007599592 0.000469999999040738
endloop
endfacet
facet normal 0.983685493469238 0.103005670011044 0
outer loop
vertex 0.0140000004321337 0.0160000007599592 0.00147000001743436
vertex 0.0140000004321337 0.0160000007599592 0.000469999999040738
vertex 0.0139755280688405 0.0161545090377331 0.000469999999040738
endloop
endfacet
facet normal 0.903710067272186 0.401939749717712 0
outer loop
vertex 0.0139755280688405 0.0161545090377331 0.00147000001743436
vertex 0.0139755280688405 0.0161545090377331 0.000469999999040738
vertex 0.0139045082032681 0.0162938926368952 0.000469999999040738
endloop
endfacet
facet normal 0.735273063182831 0.661529123783112 0
outer loop
vertex 0.0139045082032681 0.0162938926368952 0.00147000001743436
vertex 0.0139045082032681 0.0162938926368952 0.000469999999040738
vertex 0.0137938922271132 0.0164045076817274 0.000469999999040738
endloop
endfacet
facet normal 0.494862467050552 0.856363534927368 0
outer loop
vertex 0.0137938922271132 0.0164045076817274 0.00147000001743436
vertex 0.0137938922271132 0.0164045076817274 0.000469999999040738
vertex 0.0136545086279511 0.0164755284786224 0.000469999999040738
endloop
endfacet
facet normal 0.206011340022087 0.967370986938477 0
outer loop
vertex 0.0136545086279511 0.0164755284786224 0.00147000001743436
vertex 0.0136545086279511 0.0164755284786224 0.000469999999040738
vertex 0.0135000003501773 0.016499999910593 0.000469999999040738
endloop
endfacet
facet normal 0.103005670011044 0.983685493469238 0
outer loop
vertex 0.0135000003501773 0.016499999910593 0.000469999999040738
vertex 0.0135000003501773 0.016499999910593 0.00147000001743436
vertex 0.0136545086279511 0.0164755284786224 0.00147000001743436
endloop
endfacet
facet normal 0.401939749717712 0.903710067272186 0
outer loop
vertex 0.0136545086279511 0.0164755284786224 0.000469999999040738
vertex 0.0136545086279511 0.0164755284786224 0.00147000001743436
vertex 0.0137938922271132 0.0164045076817274 0.00147000001743436
endloop
endfacet
facet normal 0.661529123783112 0.735273063182831 0
outer loop
vertex 0.0137938922271132 0.0164045076817274 0.000469999999040738
vertex 0.0137938922271132 0.0164045076817274 0.00147000001743436
vertex 0.0139045082032681 0.0162938926368952 0.00147000001743436
endloop
endfacet
facet normal 0.856363534927368 0.494862467050552 0
outer loop
vertex 0.0139045082032681 0.0162938926368952 0.000469999999040738
vertex 0.0139045082032681 0.0162938926368952 0.00147000001743436
vertex 0.0139755280688405 0.0161545090377331 0.00147000001743436
endloop
endfacet
facet normal 0.967370986938477 0.206011340022087 0
outer loop
vertex 0.0139755280688405 0.0161545090377331 0.000469999999040738
vertex 0.0139755280688405 0.0161545090377331 0.00147000001743436
vertex 0.0140000004321337 0.0160000007599592 0.00147000001743436
endloop
endfacet
facet normal 1 0 0
outer loop
vertex 0.0149999996647239 0.017000000923872 0
vertex 0.0149999996647239 0.017000000923872 0.000469999999040738
vertex 0.0149999996647239 0 0.000469999999040738
endloop
endfacet
facet normal 1 0 0
outer loop
vertex 0.0149999996647239 0 0.000469999999040738
vertex 0.0149999996647239 0 0
vertex 0.0149999996647239 0.017000000923872 0
endloop
endfacet
endsolid COMSOL rendering object fin
