solid COMSOL rendering object imp1
facet normal 0 1 0
outer loop
vertex 0.000500000023748726 0.00044000000343658 -0.017000000923872
vertex 0 0.00044000000343658 -0.017000000923872
vertex 0 0.00044000000343658 -0.0167500004172325
endloop
endfacet
facet normal 0 1 0
outer loop
vertex 0.000500000023748726 0.00044000000343658 -0.0167500004172325
vertex 0 0.00044000000343658 -0.0167500004172325
vertex 0 0.00044000000343658 0
endloop
endfacet
facet normal 0 1 0
outer loop
vertex 0.00249999994412065 0.00044000000343658 -0.017000000923872
vertex 0.000500000023748726 0.00044000000343658 -0.017000000923872
vertex 0.000500000023748726 0.00044000000343658 -0.0167500004172325
endloop
endfacet
facet normal 0 1 0
outer loop
vertex 0.00249999994412065 0.00044000000343658 -0.0167500004172325
vertex 0.0020000000949949 0.00044000000343658 -0.0160000007599592
vertex 0.0020000000949949 0.00044000000343658 -0.00100000004749745
endloop
endfacet
facet normal 0 1 0
outer loop
vertex 0.00249999994412065 0.00044000000343658 -0.0167500004172325
vertex 0.00196984619833529 0.00044000000343658 -0.0161710102111101
vertex 0.0020000000949949 0.00044000000343658 -0.0160000007599592
endloop
endfacet
facet normal 0 1 0
outer loop
vertex 0.000500000023748726 0.00044000000343658 -0.0167500004172325
vertex 0.0014131759526208 0.00044000000343658 -0.0164924040436745
vertex 0.00158682407345623 0.00044000000343658 -0.0164924040436745
endloop
endfacet
facet normal 0 1 0
outer loop
vertex 0.000500000023748726 0.00044000000343658 -0.0167500004172325
vertex 0.000500000023748726 0.00044000000343658 0
vertex 0.00100000004749745 0.00044000000343658 -0.00100000004749745
endloop
endfacet
facet normal 0 1 0
outer loop
vertex 0.0020000000949949 0.00044000000343658 -0.00100000004749745
vertex 0.00249999994412065 0.00044000000343658 0
vertex 0.00249999994412065 0.00044000000343658 -0.0167500004172325
endloop
endfacet
facet normal 0 1 0
outer loop
vertex 0.00158682407345623 0.00044000000343658 -0.0164924040436745
vertex 0.00249999994412065 0.00044000000343658 -0.0167500004172325
vertex 0.000500000023748726 0.00044000000343658 -0.0167500004172325
endloop
endfacet
facet normal 0 1 0
outer loop
vertex 0.000500000023748726 0.00044000000343658 -0.0167500004172325
vertex 0.00111697777174413 0.00044000000343658 -0.0163213945925236
vertex 0.00124999997206032 0.00044000000343658 -0.0164330136030912
endloop
endfacet
facet normal 0 1 0
outer loop
vertex 0.000500000023748726 0.00044000000343658 0
vertex 0.00103015371132642 0.00044000000343658 -0.000828989956062287
vertex 0.00100000004749745 0.00044000000343658 -0.00100000004749745
endloop
endfacet
facet normal 0 1 0
outer loop
vertex 0.0020000000949949 0.00044000000343658 -0.00100000004749745
vertex 0.00196984619833529 0.00044000000343658 -0.000828989956062287
vertex 0.00249999994412065 0.00044000000343658 0
endloop
endfacet
facet normal 0 1 0
outer loop
vertex 0.00249999994412065 0.00044000000343658 -0.0167500004172325
vertex 0.00175000005401671 0.00044000000343658 -0.0164330136030912
vertex 0.0018830222543329 0.00044000000343658 -0.0163213945925236
endloop
endfacet
facet normal 0 1 0
outer loop
vertex 0.00124999997206032 0.00044000000343658 -0.0164330136030912
vertex 0.0014131759526208 0.00044000000343658 -0.0164924040436745
vertex 0.000500000023748726 0.00044000000343658 -0.0167500004172325
endloop
endfacet
facet normal 0 1 0
outer loop
vertex 0.00100000004749745 0.00044000000343658 -0.00100000004749745
vertex 0.00100000004749745 0.00044000000343658 -0.0160000007599592
vertex 0.000500000023748726 0.00044000000343658 -0.0167500004172325
endloop
endfacet
facet normal 0 1 0
outer loop
vertex 0.00196984619833529 0.00044000000343658 -0.000828989956062287
vertex 0.0018830222543329 0.00044000000343658 -0.000678606214933097
vertex 0.00249999994412065 0.00044000000343658 0
endloop
endfacet
facet normal 0 1 0
outer loop
vertex 0.00158682407345623 0.00044000000343658 -0.0164924040436745
vertex 0.00175000005401671 0.00044000000343658 -0.0164330136030912
vertex 0.00249999994412065 0.00044000000343658 -0.0167500004172325
endloop
endfacet
facet normal 0 1 0
outer loop
vertex 0.00100000004749745 0.00044000000343658 -0.0160000007599592
vertex 0.00103015371132642 0.00044000000343658 -0.0161710102111101
vertex 0.000500000023748726 0.00044000000343658 -0.0167500004172325
endloop
endfacet
facet normal 0 1 0
outer loop
vertex 0.000500000023748726 0.00044000000343658 0
vertex 0.00124999997206032 0.00044000000343658 -0.000566987320780754
vertex 0.00111697777174413 0.00044000000343658 -0.000678606214933097
endloop
endfacet
facet normal 0 1 0
outer loop
vertex 0.000500000023748726 0.00044000000343658 0
vertex 0.00249999994412065 0.00044000000343658 0
vertex 0.00158682407345623 0.00044000000343658 -0.000507596123497933
endloop
endfacet
facet normal 0 1 0
outer loop
vertex 0.0018830222543329 0.00044000000343658 -0.0163213945925236
vertex 0.00196984619833529 0.00044000000343658 -0.0161710102111101
vertex 0.00249999994412065 0.00044000000343658 -0.0167500004172325
endloop
endfacet
facet normal 0 1 0
outer loop
vertex 0.00111697777174413 0.00044000000343658 -0.000678606214933097
vertex 0.00103015371132642 0.00044000000343658 -0.000828989956062287
vertex 0.000500000023748726 0.00044000000343658 0
endloop
endfacet
facet normal 0 1 0
outer loop
vertex 0.00158682407345623 0.00044000000343658 -0.000507596123497933
vertex 0.0014131759526208 0.00044000000343658 -0.000507596123497933
vertex 0.000500000023748726 0.00044000000343658 0
endloop
endfacet
facet normal 0 1 0
outer loop
vertex 0.0018830222543329 0.00044000000343658 -0.000678606214933097
vertex 0.00175000005401671 0.00044000000343658 -0.000566987320780754
vertex 0.00249999994412065 0.00044000000343658 0
endloop
endfacet
facet normal 0 1 0
outer loop
vertex 0.0014131759526208 0.00044000000343658 -0.000507596123497933
vertex 0.00124999997206032 0.00044000000343658 -0.000566987320780754
vertex 0.000500000023748726 0.00044000000343658 0
endloop
endfacet
facet normal 0 1 0
outer loop
vertex 0.00103015371132642 0.00044000000343658 -0.0161710102111101
vertex 0.00111697777174413 0.00044000000343658 -0.0163213945925236
vertex 0.000500000023748726 0.00044000000343658 -0.0167500004172325
endloop
endfacet
facet normal 0 1 0
outer loop
vertex 0.0044999998062849 0.00044000000343658 -0.017000000923872
vertex 0.00249999994412065 0.00044000000343658 -0.017000000923872
vertex 0.00249999994412065 0.00044000000343658 -0.0167500004172325
endloop
endfacet
facet normal 0 1 0
outer loop
vertex 0.00249999994412065 0.00044000000343658 -0.0167500004172325
vertex 0.00249999994412065 0.00044000000343658 0
vertex 0.00300000002607703 0.00044000000343658 -0.00100000004749745
endloop
endfacet
facet normal 0 1 0
outer loop
vertex 0.0044999998062849 0.00044000000343658 -0.0167500004172325
vertex 0.00400000018998981 0.00044000000343658 -0.0160000007599592
vertex 0.00400000018998981 0.00044000000343658 -0.00100000004749745
endloop
endfacet
facet normal 0 1 0
outer loop
vertex 0.00300000002607703 0.00044000000343658 -0.00100000004749745
vertex 0.00300000002607703 0.00044000000343658 -0.0160000007599592
vertex 0.00249999994412065 0.00044000000343658 -0.0167500004172325
endloop
endfacet
facet normal 0 1 0
outer loop
vertex 0.00400000018998981 0.00044000000343658 -0.00100000004749745
vertex 0.0044999998062849 0.00044000000343658 0
vertex 0.0044999998062849 0.00044000000343658 -0.0167500004172325
endloop
endfacet
facet normal 0 1 0
outer loop
vertex 0.00249999994412065 0.00044000000343658 -0.0167500004172325
vertex 0.00341317593120039 0.00044000000343658 -0.0164924040436745
vertex 0.00358682405203581 0.00044000000343658 -0.0164924040436745
endloop
endfacet
facet normal 0 1 0
outer loop
vertex 0.00249999994412065 0.00044000000343658 -0.0167500004172325
vertex 0.003030153689906 0.00044000000343658 -0.0161710102111101
vertex 0.00311697786673903 0.00044000000343658 -0.0163213945925236
endloop
endfacet
facet normal 0 1 0
outer loop
vertex 0.00249999994412065 0.00044000000343658 0
vertex 0.003030153689906 0.00044000000343658 -0.000828989956062287
vertex 0.00300000002607703 0.00044000000343658 -0.00100000004749745
endloop
endfacet
facet normal 0 1 0
outer loop
vertex 0.0044999998062849 0.00044000000343658 -0.0167500004172325
vertex 0.00396984629333019 0.00044000000343658 -0.0161710102111101
vertex 0.00400000018998981 0.00044000000343658 -0.0160000007599592
endloop
endfacet
facet normal 0 1 0
outer loop
vertex 0.00358682405203581 0.00044000000343658 -0.0164924040436745
vertex 0.0044999998062849 0.00044000000343658 -0.0167500004172325
vertex 0.00249999994412065 0.00044000000343658 -0.0167500004172325
endloop
endfacet
facet normal 0 1 0
outer loop
vertex 0.00300000002607703 0.00044000000343658 -0.0160000007599592
vertex 0.003030153689906 0.00044000000343658 -0.0161710102111101
vertex 0.00249999994412065 0.00044000000343658 -0.0167500004172325
endloop
endfacet
facet normal 0 1 0
outer loop
vertex 0.00249999994412065 0.00044000000343658 0
vertex 0.00325000006705523 0.00044000000343658 -0.000566987320780754
vertex 0.00311697786673903 0.00044000000343658 -0.000678606214933097
endloop
endfacet
facet normal 0 1 0
outer loop
vertex 0.00400000018998981 0.00044000000343658 -0.00100000004749745
vertex 0.00396984629333019 0.00044000000343658 -0.000828989956062287
vertex 0.0044999998062849 0.00044000000343658 0
endloop
endfacet
facet normal 0 1 0
outer loop
vertex 0.0044999998062849 0.00044000000343658 -0.0167500004172325
vertex 0.00374999991618097 0.00044000000343658 -0.0164330136030912
vertex 0.00388302211649716 0.00044000000343658 -0.0163213945925236
endloop
endfacet
facet normal 0 1 0
outer loop
vertex 0.00249999994412065 0.00044000000343658 -0.0167500004172325
vertex 0.00325000006705523 0.00044000000343658 -0.0164330136030912
vertex 0.00341317593120039 0.00044000000343658 -0.0164924040436745
endloop
endfacet
facet normal 0 1 0
outer loop
vertex 0.00311697786673903 0.00044000000343658 -0.000678606214933097
vertex 0.003030153689906 0.00044000000343658 -0.000828989956062287
vertex 0.00249999994412065 0.00044000000343658 0
endloop
endfacet
facet normal 0 1 0
outer loop
vertex 0.00249999994412065 0.00044000000343658 0
vertex 0.0044999998062849 0.00044000000343658 0
vertex 0.00358682405203581 0.00044000000343658 -0.000507596123497933
endloop
endfacet
facet normal 0 1 0
outer loop
vertex 0.0044999998062849 0.00044000000343658 0
vertex 0.00388302211649716 0.00044000000343658 -0.000678606214933097
vertex 0.00374999991618097 0.00044000000343658 -0.000566987320780754
endloop
endfacet
facet normal 0 1 0
outer loop
vertex 0.00388302211649716 0.00044000000343658 -0.0163213945925236
vertex 0.00396984629333019 0.00044000000343658 -0.0161710102111101
vertex 0.0044999998062849 0.00044000000343658 -0.0167500004172325
endloop
endfacet
facet normal 0 1 0
outer loop
vertex 0.00311697786673903 0.00044000000343658 -0.0163213945925236
vertex 0.00325000006705523 0.00044000000343658 -0.0164330136030912
vertex 0.00249999994412065 0.00044000000343658 -0.0167500004172325
endloop
endfacet
facet normal 0 1 0
outer loop
vertex 0.00358682405203581 0.00044000000343658 -0.000507596123497933
vertex 0.00341317593120039 0.00044000000343658 -0.000507596123497933
vertex 0.00249999994412065 0.00044000000343658 0
endloop
endfacet
facet normal 0 1 0
outer loop
vertex 0.00396984629333019 0.00044000000343658 -0.000828989956062287
vertex 0.00388302211649716 0.00044000000343658 -0.000678606214933097
vertex 0.0044999998062849 0.00044000000343658 0
endloop
endfacet
facet normal 0 1 0
outer loop
vertex 0.00341317593120039 0.00044000000343658 -0.000507596123497933
vertex 0.00325000006705523 0.00044000000343658 -0.000566987320780754
vertex 0.00249999994412065 0.00044000000343658 0
endloop
endfacet
facet normal 0 1 0
outer loop
vertex 0.00358682405203581 0.00044000000343658 -0.0164924040436745
vertex 0.00374999991618097 0.00044000000343658 -0.0164330136030912
vertex 0.0044999998062849 0.00044000000343658 -0.0167500004172325
endloop
endfacet
facet normal 0 1 0
outer loop
vertex 0.00650000013411045 0.00044000000343658 -0.017000000923872
vertex 0.0044999998062849 0.00044000000343658 -0.017000000923872
vertex 0.0044999998062849 0.00044000000343658 -0.0167500004172325
endloop
endfacet
facet normal 0 1 0
outer loop
vertex 0.00650000013411045 0.00044000000343658 -0.0167500004172325
vertex 0.00600000005215406 0.00044000000343658 -0.0160000007599592
vertex 0.00600000005215406 0.00044000000343658 -0.00100000004749745
endloop
endfacet
facet normal 0 1 0
outer loop
vertex 0.00600000005215406 0.00044000000343658 -0.00100000004749745
vertex 0.00650000013411045 0.00044000000343658 0
vertex 0.00650000013411045 0.00044000000343658 -0.0167500004172325
endloop
endfacet
facet normal 0 1 0
outer loop
vertex 0.00650000013411045 0.00044000000343658 -0.0167500004172325
vertex 0.00596984615549445 0.00044000000343658 -0.0161710102111101
vertex 0.00600000005215406 0.00044000000343658 -0.0160000007599592
endloop
endfacet
facet normal 0 1 0
outer loop
vertex 0.00650000013411045 0.00044000000343658 -0.0167500004172325
vertex 0.00588302221149206 0.00044000000343658 -0.0163213945925236
vertex 0.00596984615549445 0.00044000000343658 -0.0161710102111101
endloop
endfacet
facet normal 0 1 0
outer loop
vertex 0.0044999998062849 0.00044000000343658 -0.0167500004172325
vertex 0.0044999998062849 0.00044000000343658 0
vertex 0.00499999988824129 0.00044000000343658 -0.00100000004749745
endloop
endfacet
facet normal 0 1 0
outer loop
vertex 0.00600000005215406 0.00044000000343658 -0.00100000004749745
vertex 0.00596984615549445 0.00044000000343658 -0.000828989956062287
vertex 0.00650000013411045 0.00044000000343658 0
endloop
endfacet
facet normal 0 1 0
outer loop
vertex 0.00650000013411045 0.00044000000343658 -0.0167500004172325
vertex 0.0044999998062849 0.00044000000343658 -0.0167500004172325
vertex 0.00541317602619529 0.00044000000343658 -0.0164924040436745
endloop
endfacet
facet normal 0 1 0
outer loop
vertex 0.0044999998062849 0.00044000000343658 0
vertex 0.0050301537849009 0.00044000000343658 -0.000828989956062287
vertex 0.00499999988824129 0.00044000000343658 -0.00100000004749745
endloop
endfacet
facet normal 0 1 0
outer loop
vertex 0.00650000013411045 0.00044000000343658 -0.0167500004172325
vertex 0.00575000001117587 0.00044000000343658 -0.0164330136030912
vertex 0.00588302221149206 0.00044000000343658 -0.0163213945925236
endloop
endfacet
facet normal 0 1 0
outer loop
vertex 0.00541317602619529 0.00044000000343658 -0.0164924040436745
vertex 0.00558682391420007 0.00044000000343658 -0.0164924040436745
vertex 0.00650000013411045 0.00044000000343658 -0.0167500004172325
endloop
endfacet
facet normal 0 1 0
outer loop
vertex 0.0044999998062849 0.00044000000343658 -0.0167500004172325
vertex 0.00511697772890329 0.00044000000343658 -0.0163213945925236
vertex 0.00524999992921948 0.00044000000343658 -0.0164330136030912
endloop
endfacet
facet normal 0 1 0
outer loop
vertex 0.00499999988824129 0.00044000000343658 -0.00100000004749745
vertex 0.00499999988824129 0.00044000000343658 -0.0160000007599592
vertex 0.0044999998062849 0.00044000000343658 -0.0167500004172325
endloop
endfacet
facet normal 0 1 0
outer loop
vertex 0.0044999998062849 0.00044000000343658 0
vertex 0.00524999992921948 0.00044000000343658 -0.000566987320780754
vertex 0.00511697772890329 0.00044000000343658 -0.000678606214933097
endloop
endfacet
facet normal 0 1 0
outer loop
vertex 0.00596984615549445 0.00044000000343658 -0.000828989956062287
vertex 0.00588302221149206 0.00044000000343658 -0.000678606214933097
vertex 0.00650000013411045 0.00044000000343658 0
endloop
endfacet
facet normal 0 1 0
outer loop
vertex 0.00524999992921948 0.00044000000343658 -0.0164330136030912
vertex 0.00541317602619529 0.00044000000343658 -0.0164924040436745
vertex 0.0044999998062849 0.00044000000343658 -0.0167500004172325
endloop
endfacet
facet normal 0 1 0
outer loop
vertex 0.00511697772890329 0.00044000000343658 -0.000678606214933097
vertex 0.0050301537849009 0.00044000000343658 -0.000828989956062287
vertex 0.0044999998062849 0.00044000000343658 0
endloop
endfacet
facet normal 0 1 0
outer loop
vertex 0.00558682391420007 0.00044000000343658 -0.0164924040436745
vertex 0.00575000001117587 0.00044000000343658 -0.0164330136030912
vertex 0.00650000013411045 0.00044000000343658 -0.0167500004172325
endloop
endfacet
facet normal 0 1 0
outer loop
vertex 0.00499999988824129 0.00044000000343658 -0.0160000007599592
vertex 0.0050301537849009 0.00044000000343658 -0.0161710102111101
vertex 0.0044999998062849 0.00044000000343658 -0.0167500004172325
endloop
endfacet
facet normal 0 1 0
outer loop
vertex 0.0050301537849009 0.00044000000343658 -0.0161710102111101
vertex 0.00511697772890329 0.00044000000343658 -0.0163213945925236
vertex 0.0044999998062849 0.00044000000343658 -0.0167500004172325
endloop
endfacet
facet normal 0 1 0
outer loop
vertex 0.0044999998062849 0.00044000000343658 0
vertex 0.00650000013411045 0.00044000000343658 0
vertex 0.00558682391420007 0.00044000000343658 -0.000507596123497933
endloop
endfacet
facet normal 0 1 0
outer loop
vertex 0.00588302221149206 0.00044000000343658 -0.000678606214933097
vertex 0.00575000001117587 0.00044000000343658 -0.000566987320780754
vertex 0.00650000013411045 0.00044000000343658 0
endloop
endfacet
facet normal 0 1 0
outer loop
vertex 0.00558682391420007 0.00044000000343658 -0.000507596123497933
vertex 0.00541317602619529 0.00044000000343658 -0.000507596123497933
vertex 0.0044999998062849 0.00044000000343658 0
endloop
endfacet
facet normal 0 1 0
outer loop
vertex 0.00541317602619529 0.00044000000343658 -0.000507596123497933
vertex 0.00524999992921948 0.00044000000343658 -0.000566987320780754
vertex 0.0044999998062849 0.00044000000343658 0
endloop
endfacet
facet normal 0 1 0
outer loop
vertex 0.008500000461936 0.00044000000343658 -0.017000000923872
vertex 0.00650000013411045 0.00044000000343658 -0.017000000923872
vertex 0.00650000013411045 0.00044000000343658 -0.0167500004172325
endloop
endfacet
facet normal 0 1 0
outer loop
vertex 0.008500000461936 0.00044000000343658 -0.0167500004172325
vertex 0.00800000037997961 0.00044000000343658 -0.0160000007599592
vertex 0.00800000037997961 0.00044000000343658 -0.00100000004749745
endloop
endfacet
facet normal 0 1 0
outer loop
vertex 0.00800000037997961 0.00044000000343658 -0.00100000004749745
vertex 0.008500000461936 0.00044000000343658 0
vertex 0.008500000461936 0.00044000000343658 -0.0167500004172325
endloop
endfacet
facet normal 0 1 0
outer loop
vertex 0.00650000013411045 0.00044000000343658 -0.0167500004172325
vertex 0.00650000013411045 0.00044000000343658 0
vertex 0.00700000021606684 0.00044000000343658 -0.00100000004749745
endloop
endfacet
facet normal 0 1 0
outer loop
vertex 0.008500000461936 0.00044000000343658 -0.0167500004172325
vertex 0.00796984601765871 0.00044000000343658 -0.0161710102111101
vertex 0.00800000037997961 0.00044000000343658 -0.0160000007599592
endloop
endfacet
facet normal 0 1 0
outer loop
vertex 0.00650000013411045 0.00044000000343658 -0.0167500004172325
vertex 0.00741317588835955 0.00044000000343658 -0.0164924040436745
vertex 0.00758682424202561 0.00044000000343658 -0.0164924040436745
endloop
endfacet
facet normal 0 1 0
outer loop
vertex 0.00700000021606684 0.00044000000343658 -0.00100000004749745
vertex 0.00700000021606684 0.00044000000343658 -0.0160000007599592
vertex 0.00650000013411045 0.00044000000343658 -0.0167500004172325
endloop
endfacet
facet normal 0 1 0
outer loop
vertex 0.008500000461936 0.00044000000343658 0
vertex 0.00796984601765871 0.00044000000343658 -0.000828989956062287
vertex 0.00788302253931761 0.00044000000343658 -0.000678606214933097
endloop
endfacet
facet normal 0 1 0
outer loop
vertex 0.008500000461936 0.00044000000343658 -0.0167500004172325
vertex 0.00788302253931761 0.00044000000343658 -0.0163213945925236
vertex 0.00796984601765871 0.00044000000343658 -0.0161710102111101
endloop
endfacet
facet normal 0 1 0
outer loop
vertex 0.00758682424202561 0.00044000000343658 -0.0164924040436745
vertex 0.008500000461936 0.00044000000343658 -0.0167500004172325
vertex 0.00650000013411045 0.00044000000343658 -0.0167500004172325
endloop
endfacet
facet normal 0 1 0
outer loop
vertex 0.00650000013411045 0.00044000000343658 -0.0167500004172325
vertex 0.00703015364706516 0.00044000000343658 -0.0161710102111101
vertex 0.00711697759106755 0.00044000000343658 -0.0163213945925236
endloop
endfacet
facet normal 0 1 0
outer loop
vertex 0.00650000013411045 0.00044000000343658 0
vertex 0.00703015364706516 0.00044000000343658 -0.000828989956062287
vertex 0.00700000021606684 0.00044000000343658 -0.00100000004749745
endloop
endfacet
facet normal 0 1 0
outer loop
vertex 0.00650000013411045 0.00044000000343658 0
vertex 0.00724999979138374 0.00044000000343658 -0.000566987320780754
vertex 0.00711697759106755 0.00044000000343658 -0.000678606214933097
endloop
endfacet
facet normal 0 1 0
outer loop
vertex 0.00800000037997961 0.00044000000343658 -0.00100000004749745
vertex 0.00796984601765871 0.00044000000343658 -0.000828989956062287
vertex 0.008500000461936 0.00044000000343658 0
endloop
endfacet
facet normal 0 1 0
outer loop
vertex 0.00650000013411045 0.00044000000343658 -0.0167500004172325
vertex 0.00724999979138374 0.00044000000343658 -0.0164330136030912
vertex 0.00741317588835955 0.00044000000343658 -0.0164924040436745
endloop
endfacet
facet normal 0 1 0
outer loop
vertex 0.00700000021606684 0.00044000000343658 -0.0160000007599592
vertex 0.00703015364706516 0.00044000000343658 -0.0161710102111101
vertex 0.00650000013411045 0.00044000000343658 -0.0167500004172325
endloop
endfacet
facet normal 0 1 0
outer loop
vertex 0.00650000013411045 0.00044000000343658 0
vertex 0.00741317588835955 0.00044000000343658 -0.000507596123497933
vertex 0.00724999979138374 0.00044000000343658 -0.000566987320780754
endloop
endfacet
facet normal 0 1 0
outer loop
vertex 0.00650000013411045 0.00044000000343658 0
vertex 0.008500000461936 0.00044000000343658 0
vertex 0.00758682424202561 0.00044000000343658 -0.000507596123497933
endloop
endfacet
facet normal 0 1 0
outer loop
vertex 0.008500000461936 0.00044000000343658 -0.0167500004172325
vertex 0.00774999987334013 0.00044000000343658 -0.0164330136030912
vertex 0.00788302253931761 0.00044000000343658 -0.0163213945925236
endloop
endfacet
facet normal 0 1 0
outer loop
vertex 0.00711697759106755 0.00044000000343658 -0.0163213945925236
vertex 0.00724999979138374 0.00044000000343658 -0.0164330136030912
vertex 0.00650000013411045 0.00044000000343658 -0.0167500004172325
endloop
endfacet
facet normal 0 1 0
outer loop
vertex 0.00758682424202561 0.00044000000343658 -0.000507596123497933
vertex 0.00741317588835955 0.00044000000343658 -0.000507596123497933
vertex 0.00650000013411045 0.00044000000343658 0
endloop
endfacet
facet normal 0 1 0
outer loop
vertex 0.00788302253931761 0.00044000000343658 -0.000678606214933097
vertex 0.00774999987334013 0.00044000000343658 -0.000566987320780754
vertex 0.008500000461936 0.00044000000343658 0
endloop
endfacet
facet normal 0 1 0
outer loop
vertex 0.00711697759106755 0.00044000000343658 -0.000678606214933097
vertex 0.00703015364706516 0.00044000000343658 -0.000828989956062287
vertex 0.00650000013411045 0.00044000000343658 0
endloop
endfacet
facet normal 0 1 0
outer loop
vertex 0.00758682424202561 0.00044000000343658 -0.0164924040436745
vertex 0.00774999987334013 0.00044000000343658 -0.0164330136030912
vertex 0.008500000461936 0.00044000000343658 -0.0167500004172325
endloop
endfacet
facet normal 0 1 0
outer loop
vertex 0.010499999858439 0.00044000000343658 -0.017000000923872
vertex 0.008500000461936 0.00044000000343658 -0.017000000923872
vertex 0.008500000461936 0.00044000000343658 -0.0167500004172325
endloop
endfacet
facet normal 0 1 0
outer loop
vertex 0.010499999858439 0.00044000000343658 -0.0167500004172325
vertex 0.00999999977648258 0.00044000000343658 -0.0160000007599592
vertex 0.00999999977648258 0.00044000000343658 -0.00100000004749745
endloop
endfacet
facet normal 0 1 0
outer loop
vertex 0.00999999977648258 0.00044000000343658 -0.00100000004749745
vertex 0.010499999858439 0.00044000000343658 0
vertex 0.010499999858439 0.00044000000343658 -0.0167500004172325
endloop
endfacet
facet normal 0 1 0
outer loop
vertex 0.010499999858439 0.00044000000343658 -0.0167500004172325
vertex 0.00996984634548426 0.00044000000343658 -0.0161710102111101
vertex 0.00999999977648258 0.00044000000343658 -0.0160000007599592
endloop
endfacet
facet normal 0 1 0
outer loop
vertex 0.010499999858439 0.00044000000343658 0
vertex 0.00996984634548426 0.00044000000343658 -0.000828989956062287
vertex 0.00988302193582058 0.00044000000343658 -0.000678606214933097
endloop
endfacet
facet normal 0 1 0
outer loop
vertex 0.010499999858439 0.00044000000343658 -0.0167500004172325
vertex 0.00988302193582058 0.00044000000343658 -0.0163213945925236
vertex 0.00996984634548426 0.00044000000343658 -0.0161710102111101
endloop
endfacet
facet normal 0 1 0
outer loop
vertex 0.008500000461936 0.00044000000343658 -0.0167500004172325
vertex 0.008500000461936 0.00044000000343658 0
vertex 0.00899999961256981 0.00044000000343658 -0.00100000004749745
endloop
endfacet
facet normal 0 1 0
outer loop
vertex 0.00999999977648258 0.00044000000343658 -0.00100000004749745
vertex 0.00996984634548426 0.00044000000343658 -0.000828989956062287
vertex 0.010499999858439 0.00044000000343658 0
endloop
endfacet
facet normal 0 1 0
outer loop
vertex 0.010499999858439 0.00044000000343658 -0.0167500004172325
vertex 0.00958682410418987 0.00044000000343658 -0.0164924040436745
vertex 0.00975000020116568 0.00044000000343658 -0.0164330136030912
endloop
endfacet
facet normal 0 1 0
outer loop
vertex 0.008500000461936 0.00044000000343658 0
vertex 0.00903015397489071 0.00044000000343658 -0.000828989956062287
vertex 0.00899999961256981 0.00044000000343658 -0.00100000004749745
endloop
endfacet
facet normal 0 1 0
outer loop
vertex 0.00975000020116568 0.00044000000343658 -0.0164330136030912
vertex 0.00988302193582058 0.00044000000343658 -0.0163213945925236
vertex 0.010499999858439 0.00044000000343658 -0.0167500004172325
endloop
endfacet
facet normal 0 1 0
outer loop
vertex 0.010499999858439 0.00044000000343658 -0.0167500004172325
vertex 0.008500000461936 0.00044000000343658 -0.0167500004172325
vertex 0.00941317621618509 0.00044000000343658 -0.0164924040436745
endloop
endfacet
facet normal 0 1 0
outer loop
vertex 0.00899999961256981 0.00044000000343658 -0.00100000004749745
vertex 0.00899999961256981 0.00044000000343658 -0.0160000007599592
vertex 0.008500000461936 0.00044000000343658 -0.0167500004172325
endloop
endfacet
facet normal 0 1 0
outer loop
vertex 0.00941317621618509 0.00044000000343658 -0.0164924040436745
vertex 0.00958682410418987 0.00044000000343658 -0.0164924040436745
vertex 0.010499999858439 0.00044000000343658 -0.0167500004172325
endloop
endfacet
facet normal 0 1 0
outer loop
vertex 0.008500000461936 0.00044000000343658 -0.0167500004172325
vertex 0.00911697745323181 0.00044000000343658 -0.0163213945925236
vertex 0.00925000011920929 0.00044000000343658 -0.0164330136030912
endloop
endfacet
facet normal 0 1 0
outer loop
vertex 0.00899999961256981 0.00044000000343658 -0.0160000007599592
vertex 0.00903015397489071 0.00044000000343658 -0.0161710102111101
vertex 0.008500000461936 0.00044000000343658 -0.0167500004172325
endloop
endfacet
facet normal 0 1 0
outer loop
vertex 0.008500000461936 0.00044000000343658 0
vertex 0.00925000011920929 0.00044000000343658 -0.000566987320780754
vertex 0.00911697745323181 0.00044000000343658 -0.000678606214933097
endloop
endfacet
facet normal 0 1 0
outer loop
vertex 0.008500000461936 0.00044000000343658 0
vertex 0.010499999858439 0.00044000000343658 0
vertex 0.00958682410418987 0.00044000000343658 -0.000507596123497933
endloop
endfacet
facet normal 0 1 0
outer loop
vertex 0.00925000011920929 0.00044000000343658 -0.0164330136030912
vertex 0.00941317621618509 0.00044000000343658 -0.0164924040436745
vertex 0.008500000461936 0.00044000000343658 -0.0167500004172325
endloop
endfacet
facet normal 0 1 0
outer loop
vertex 0.00911697745323181 0.00044000000343658 -0.000678606214933097
vertex 0.00903015397489071 0.00044000000343658 -0.000828989956062287
vertex 0.008500000461936 0.00044000000343658 0
endloop
endfacet
facet normal 0 1 0
outer loop
vertex 0.00958682410418987 0.00044000000343658 -0.000507596123497933
vertex 0.00941317621618509 0.00044000000343658 -0.000507596123497933
vertex 0.008500000461936 0.00044000000343658 0
endloop
endfacet
facet normal 0 1 0
outer loop
vertex 0.00988302193582058 0.00044000000343658 -0.000678606214933097
vertex 0.00975000020116568 0.00044000000343658 -0.000566987320780754
vertex 0.010499999858439 0.00044000000343658 0
endloop
endfacet
facet normal 0 1 0
outer loop
vertex 0.00941317621618509 0.00044000000343658 -0.000507596123497933
vertex 0.00925000011920929 0.00044000000343658 -0.000566987320780754
vertex 0.008500000461936 0.00044000000343658 0
endloop
endfacet
facet normal 0 1 0
outer loop
vertex 0.00903015397489071 0.00044000000343658 -0.0161710102111101
vertex 0.00911697745323181 0.00044000000343658 -0.0163213945925236
vertex 0.008500000461936 0.00044000000343658 -0.0167500004172325
endloop
endfacet
facet normal 0 1 0
outer loop
vertex 0.0125000001862645 0.00044000000343658 -0.017000000923872
vertex 0.010499999858439 0.00044000000343658 -0.017000000923872
vertex 0.010499999858439 0.00044000000343658 -0.0167500004172325
endloop
endfacet
facet normal 0 1 0
outer loop
vertex 0.0125000001862645 0.00044000000343658 -0.0167500004172325
vertex 0.0120000001043081 0.00044000000343658 -0.0160000007599592
vertex 0.0120000001043081 0.00044000000343658 -0.00100000004749745
endloop
endfacet
facet normal 0 1 0
outer loop
vertex 0.0120000001043081 0.00044000000343658 -0.00100000004749745
vertex 0.0125000001862645 0.00044000000343658 0
vertex 0.0125000001862645 0.00044000000343658 -0.0167500004172325
endloop
endfacet
facet normal 0 1 0
outer loop
vertex 0.010499999858439 0.00044000000343658 -0.0167500004172325
vertex 0.010499999858439 0.00044000000343658 0
vertex 0.0109999999403954 0.00044000000343658 -0.00100000004749745
endloop
endfacet
facet normal 0 1 0
outer loop
vertex 0.0125000001862645 0.00044000000343658 -0.0167500004172325
vertex 0.0119698466733098 0.00044000000343658 -0.0161710102111101
vertex 0.0120000001043081 0.00044000000343658 -0.0160000007599592
endloop
endfacet
facet normal 0 1 0
outer loop
vertex 0.0109999999403954 0.00044000000343658 -0.00100000004749745
vertex 0.0109999999403954 0.00044000000343658 -0.0160000007599592
vertex 0.010499999858439 0.00044000000343658 -0.0167500004172325
endloop
endfacet
facet normal 0 1 0
outer loop
vertex 0.0125000001862645 0.00044000000343658 -0.0167500004172325
vertex 0.0118830222636461 0.00044000000343658 -0.0163213945925236
vertex 0.0119698466733098 0.00044000000343658 -0.0161710102111101
endloop
endfacet
facet normal 0 1 0
outer loop
vertex 0.010499999858439 0.00044000000343658 -0.0167500004172325
vertex 0.0114131756126881 0.00044000000343658 -0.0164924040436745
vertex 0.0115868244320154 0.00044000000343658 -0.0164924040436745
endloop
endfacet
facet normal 0 1 0
outer loop
vertex 0.010499999858439 0.00044000000343658 0
vertex 0.0110301533713937 0.00044000000343658 -0.000828989956062287
vertex 0.0109999999403954 0.00044000000343658 -0.00100000004749745
endloop
endfacet
facet normal 0 1 0
outer loop
vertex 0.0125000001862645 0.00044000000343658 0
vertex 0.0118830222636461 0.00044000000343658 -0.000678606214933097
vertex 0.0117499995976686 0.00044000000343658 -0.000566987320780754
endloop
endfacet
facet normal 0 1 0
outer loop
vertex 0.0120000001043081 0.00044000000343658 -0.00100000004749745
vertex 0.0119698466733098 0.00044000000343658 -0.000828989956062287
vertex 0.0125000001862645 0.00044000000343658 0
endloop
endfacet
facet normal 0 1 0
outer loop
vertex 0.010499999858439 0.00044000000343658 -0.0167500004172325
vertex 0.0112500004470348 0.00044000000343658 -0.0164330136030912
vertex 0.0114131756126881 0.00044000000343658 -0.0164924040436745
endloop
endfacet
facet normal 0 1 0
outer loop
vertex 0.010499999858439 0.00044000000343658 0
vertex 0.0111169777810574 0.00044000000343658 -0.000678606214933097
vertex 0.0110301533713937 0.00044000000343658 -0.000828989956062287
endloop
endfacet
facet normal 0 1 0
outer loop
vertex 0.0119698466733098 0.00044000000343658 -0.000828989956062287
vertex 0.0118830222636461 0.00044000000343658 -0.000678606214933097
vertex 0.0125000001862645 0.00044000000343658 0
endloop
endfacet
facet normal 0 1 0
outer loop
vertex 0.010499999858439 0.00044000000343658 -0.0167500004172325
vertex 0.0111169777810574 0.00044000000343658 -0.0163213945925236
vertex 0.0112500004470348 0.00044000000343658 -0.0164330136030912
endloop
endfacet
facet normal 0 1 0
outer loop
vertex 0.0109999999403954 0.00044000000343658 -0.0160000007599592
vertex 0.0110301533713937 0.00044000000343658 -0.0161710102111101
vertex 0.010499999858439 0.00044000000343658 -0.0167500004172325
endloop
endfacet
facet normal 0 1 0
outer loop
vertex 0.010499999858439 0.00044000000343658 0
vertex 0.0114131756126881 0.00044000000343658 -0.000507596123497933
vertex 0.0112500004470348 0.00044000000343658 -0.000566987320780754
endloop
endfacet
facet normal 0 1 0
outer loop
vertex 0.010499999858439 0.00044000000343658 0
vertex 0.0125000001862645 0.00044000000343658 0
vertex 0.0115868244320154 0.00044000000343658 -0.000507596123497933
endloop
endfacet
facet normal 0 1 0
outer loop
vertex 0.0125000001862645 0.00044000000343658 -0.0167500004172325
vertex 0.0117499995976686 0.00044000000343658 -0.0164330136030912
vertex 0.0118830222636461 0.00044000000343658 -0.0163213945925236
endloop
endfacet
facet normal 0 1 0
outer loop
vertex 0.0110301533713937 0.00044000000343658 -0.0161710102111101
vertex 0.0111169777810574 0.00044000000343658 -0.0163213945925236
vertex 0.010499999858439 0.00044000000343658 -0.0167500004172325
endloop
endfacet
facet normal 0 1 0
outer loop
vertex 0.0115868244320154 0.00044000000343658 -0.000507596123497933
vertex 0.0114131756126881 0.00044000000343658 -0.000507596123497933
vertex 0.010499999858439 0.00044000000343658 0
endloop
endfacet
facet normal 0 1 0
outer loop
vertex 0.0125000001862645 0.00044000000343658 -0.0167500004172325
vertex 0.0115868244320154 0.00044000000343658 -0.0164924040436745
vertex 0.0117499995976686 0.00044000000343658 -0.0164330136030912
endloop
endfacet
facet normal 0 1 0
outer loop
vertex 0.0112500004470348 0.00044000000343658 -0.000566987320780754
vertex 0.0111169777810574 0.00044000000343658 -0.000678606214933097
vertex 0.010499999858439 0.00044000000343658 0
endloop
endfacet
facet normal 0 1 0
outer loop
vertex 0.0115868244320154 0.00044000000343658 -0.0164924040436745
vertex 0.0125000001862645 0.00044000000343658 -0.0167500004172325
vertex 0.010499999858439 0.00044000000343658 -0.0167500004172325
endloop
endfacet
facet normal 0 1 0
outer loop
vertex 0.0149999996647239 0.00044000000343658 -0.017000000923872
vertex 0.0125000001862645 0.00044000000343658 -0.017000000923872
vertex 0.0125000001862645 0.00044000000343658 -0.0167500004172325
endloop
endfacet
facet normal 0 1 0
outer loop
vertex 0.0149999996647239 0.00044000000343658 -0.0167500004172325
vertex 0.0140000004321337 0.00044000000343658 -0.0160000007599592
vertex 0.0140000004321337 0.00044000000343658 -0.00100000004749745
endloop
endfacet
facet normal 0 1 0
outer loop
vertex 0.0140000004321337 0.00044000000343658 -0.00100000004749745
vertex 0.0149999996647239 0.00044000000343658 0
vertex 0.0149999996647239 0.00044000000343658 -0.0167500004172325
endloop
endfacet
facet normal 0 1 0
outer loop
vertex 0.0149999996647239 0.00044000000343658 -0.0167500004172325
vertex 0.0139698460698128 0.00044000000343658 -0.0161710102111101
vertex 0.0140000004321337 0.00044000000343658 -0.0160000007599592
endloop
endfacet
facet normal 0 1 0
outer loop
vertex 0.0149999996647239 0.00044000000343658 0
vertex 0.0139698460698128 0.00044000000343658 -0.000828989956062287
vertex 0.0138830225914717 0.00044000000343658 -0.000678606214933097
endloop
endfacet
facet normal 0 1 0
outer loop
vertex 0.0149999996647239 0.00044000000343658 -0.0167500004172325
vertex 0.0138830225914717 0.00044000000343658 -0.0163213945925236
vertex 0.0139698460698128 0.00044000000343658 -0.0161710102111101
endloop
endfacet
facet normal 0 1 0
outer loop
vertex 0.0125000001862645 0.00044000000343658 -0.0167500004172325
vertex 0.0125000001862645 0.00044000000343658 0
vertex 0.0130000002682209 0.00044000000343658 -0.00100000004749745
endloop
endfacet
facet normal 0 1 0
outer loop
vertex 0.0140000004321337 0.00044000000343658 -0.00100000004749745
vertex 0.0139698460698128 0.00044000000343658 -0.000828989956062287
vertex 0.0149999996647239 0.00044000000343658 0
endloop
endfacet
facet normal 0 1 0
outer loop
vertex 0.0149999996647239 0.00044000000343658 -0.0167500004172325
vertex 0.0135868238285184 0.00044000000343658 -0.0164924040436745
vertex 0.0137499999254942 0.00044000000343658 -0.0164330136030912
endloop
endfacet
facet normal 0 1 0
outer loop
vertex 0.0125000001862645 0.00044000000343658 0
vertex 0.0130301536992192 0.00044000000343658 -0.000828989956062287
vertex 0.0130000002682209 0.00044000000343658 -0.00100000004749745
endloop
endfacet
facet normal 0 1 0
outer loop
vertex 0.0137499999254942 0.00044000000343658 -0.0164330136030912
vertex 0.0138830225914717 0.00044000000343658 -0.0163213945925236
vertex 0.0149999996647239 0.00044000000343658 -0.0167500004172325
endloop
endfacet
facet normal 0 1 0
outer loop
vertex 0.0125000001862645 0.00044000000343658 -0.0167500004172325
vertex 0.0134131759405136 0.00044000000343658 -0.0164924040436745
vertex 0.0135868238285184 0.00044000000343658 -0.0164924040436745
endloop
endfacet
facet normal 0 1 0
outer loop
vertex 0.0130000002682209 0.00044000000343658 -0.00100000004749745
vertex 0.0130000002682209 0.00044000000343658 -0.0160000007599592
vertex 0.0125000001862645 0.00044000000343658 -0.0167500004172325
endloop
endfacet
facet normal 0 1 0
outer loop
vertex 0.0135868238285184 0.00044000000343658 -0.0164924040436745
vertex 0.0149999996647239 0.00044000000343658 -0.0167500004172325
vertex 0.0125000001862645 0.00044000000343658 -0.0167500004172325
endloop
endfacet
facet normal 0 1 0
outer loop
vertex 0.0125000001862645 0.00044000000343658 -0.0167500004172325
vertex 0.0131169781088829 0.00044000000343658 -0.0163213945925236
vertex 0.0132499998435378 0.00044000000343658 -0.0164330136030912
endloop
endfacet
facet normal 0 1 0
outer loop
vertex 0.0130000002682209 0.00044000000343658 -0.0160000007599592
vertex 0.0130301536992192 0.00044000000343658 -0.0161710102111101
vertex 0.0125000001862645 0.00044000000343658 -0.0167500004172325
endloop
endfacet
facet normal 0 1 0
outer loop
vertex 0.0125000001862645 0.00044000000343658 0
vertex 0.0132499998435378 0.00044000000343658 -0.000566987320780754
vertex 0.0131169781088829 0.00044000000343658 -0.000678606214933097
endloop
endfacet
facet normal 0 1 0
outer loop
vertex 0.0125000001862645 0.00044000000343658 0
vertex 0.0149999996647239 0.00044000000343658 0
vertex 0.0135868238285184 0.00044000000343658 -0.000507596123497933
endloop
endfacet
facet normal 0 1 0
outer loop
vertex 0.0132499998435378 0.00044000000343658 -0.0164330136030912
vertex 0.0134131759405136 0.00044000000343658 -0.0164924040436745
vertex 0.0125000001862645 0.00044000000343658 -0.0167500004172325
endloop
endfacet
facet normal 0 1 0
outer loop
vertex 0.0131169781088829 0.00044000000343658 -0.000678606214933097
vertex 0.0130301536992192 0.00044000000343658 -0.000828989956062287
vertex 0.0125000001862645 0.00044000000343658 0
endloop
endfacet
facet normal 0 1 0
outer loop
vertex 0.0135868238285184 0.00044000000343658 -0.000507596123497933
vertex 0.0134131759405136 0.00044000000343658 -0.000507596123497933
vertex 0.0125000001862645 0.00044000000343658 0
endloop
endfacet
facet normal 0 1 0
outer loop
vertex 0.0138830225914717 0.00044000000343658 -0.000678606214933097
vertex 0.0137499999254942 0.00044000000343658 -0.000566987320780754
vertex 0.0149999996647239 0.00044000000343658 0
endloop
endfacet
facet normal 0 1 0
outer loop
vertex 0.0134131759405136 0.00044000000343658 -0.000507596123497933
vertex 0.0132499998435378 0.00044000000343658 -0.000566987320780754
vertex 0.0125000001862645 0.00044000000343658 0
endloop
endfacet
facet normal 0 1 0
outer loop
vertex 0.0130301536992192 0.00044000000343658 -0.0161710102111101
vertex 0.0131169781088829 0.00044000000343658 -0.0163213945925236
vertex 0.0125000001862645 0.00044000000343658 -0.0167500004172325
endloop
endfacet
facet normal 0 1 0
outer loop
vertex 0.0137499999254942 0.00044000000343658 -0.000566987320780754
vertex 0.0135868238285184 0.00044000000343658 -0.000507596123497933
vertex 0.0149999996647239 0.00044000000343658 0
endloop
endfacet
facet normal 0 1 0
outer loop
vertex 0.0125000001862645 0.00044000000343658 -0.0167500004172325
vertex 0.0149999996647239 0.00044000000343658 -0.0167500004172325
vertex 0.0149999996647239 0.00044000000343658 -0.017000000923872
endloop
endfacet
facet normal 0 1 0
outer loop
vertex 0.0117499995976686 0.00044000000343658 -0.000566987320780754
vertex 0.0115868244320154 0.00044000000343658 -0.000507596123497933
vertex 0.0125000001862645 0.00044000000343658 0
endloop
endfacet
facet normal 0 1 0
outer loop
vertex 0.010499999858439 0.00044000000343658 -0.0167500004172325
vertex 0.0125000001862645 0.00044000000343658 -0.0167500004172325
vertex 0.0125000001862645 0.00044000000343658 -0.017000000923872
endloop
endfacet
facet normal 0 1 0
outer loop
vertex 0.00975000020116568 0.00044000000343658 -0.000566987320780754
vertex 0.00958682410418987 0.00044000000343658 -0.000507596123497933
vertex 0.010499999858439 0.00044000000343658 0
endloop
endfacet
facet normal 0 1 0
outer loop
vertex 0.008500000461936 0.00044000000343658 -0.0167500004172325
vertex 0.010499999858439 0.00044000000343658 -0.0167500004172325
vertex 0.010499999858439 0.00044000000343658 -0.017000000923872
endloop
endfacet
facet normal 0 1 0
outer loop
vertex 0.00774999987334013 0.00044000000343658 -0.000566987320780754
vertex 0.00758682424202561 0.00044000000343658 -0.000507596123497933
vertex 0.008500000461936 0.00044000000343658 0
endloop
endfacet
facet normal 0 1 0
outer loop
vertex 0.00650000013411045 0.00044000000343658 -0.0167500004172325
vertex 0.008500000461936 0.00044000000343658 -0.0167500004172325
vertex 0.008500000461936 0.00044000000343658 -0.017000000923872
endloop
endfacet
facet normal 0 1 0
outer loop
vertex 0.00575000001117587 0.00044000000343658 -0.000566987320780754
vertex 0.00558682391420007 0.00044000000343658 -0.000507596123497933
vertex 0.00650000013411045 0.00044000000343658 0
endloop
endfacet
facet normal 0 1 0
outer loop
vertex 0.0044999998062849 0.00044000000343658 -0.0167500004172325
vertex 0.00650000013411045 0.00044000000343658 -0.0167500004172325
vertex 0.00650000013411045 0.00044000000343658 -0.017000000923872
endloop
endfacet
facet normal 0 1 0
outer loop
vertex 0.00374999991618097 0.00044000000343658 -0.000566987320780754
vertex 0.00358682405203581 0.00044000000343658 -0.000507596123497933
vertex 0.0044999998062849 0.00044000000343658 0
endloop
endfacet
facet normal 0 1 0
outer loop
vertex 0.00249999994412065 0.00044000000343658 -0.0167500004172325
vertex 0.0044999998062849 0.00044000000343658 -0.0167500004172325
vertex 0.0044999998062849 0.00044000000343658 -0.017000000923872
endloop
endfacet
facet normal 0 1 0
outer loop
vertex 0.00175000005401671 0.00044000000343658 -0.000566987320780754
vertex 0.00158682407345623 0.00044000000343658 -0.000507596123497933
vertex 0.00249999994412065 0.00044000000343658 0
endloop
endfacet
facet normal 0 1 0
outer loop
vertex 0.000500000023748726 0.00044000000343658 -0.0167500004172325
vertex 0.00249999994412065 0.00044000000343658 -0.0167500004172325
vertex 0.00249999994412065 0.00044000000343658 -0.017000000923872
endloop
endfacet
facet normal 0 1 0
outer loop
vertex 0 0.00044000000343658 0
vertex 0.000500000023748726 0.00044000000343658 0
vertex 0.000500000023748726 0.00044000000343658 -0.0167500004172325
endloop
endfacet
facet normal 0 1 0
outer loop
vertex 0 0.00044000000343658 -0.0167500004172325
vertex 0.000500000023748726 0.00044000000343658 -0.0167500004172325
vertex 0.000500000023748726 0.00044000000343658 -0.017000000923872
endloop
endfacet
endsolid COMSOL rendering object imp1
