solid COMSOL rendering object imp1
facet normal 0 1 0
outer loop
vertex 0.00158682407345623 0.0014400000218302 -0.00149240391328931
vertex 0.00103015371132642 0.0014400000218302 -0.00117101008072495
vertex 0.00100000004749745 0.0014400000218302 -0.00100000004749745
endloop
endfacet
facet normal 0 1 0
outer loop
vertex 0.00196984619833529 0.0014400000218302 -0.000828989956062287
vertex 0.00158682407345623 0.0014400000218302 -0.000507596123497933
vertex 0.00175000005401671 0.0014400000218302 -0.000566987320780754
endloop
endfacet
facet normal 0 1 0
outer loop
vertex 0.00196984619833529 0.0014400000218302 -0.000828989956062287
vertex 0.00111697777174413 0.0014400000218302 -0.000678606214933097
vertex 0.00124999997206032 0.0014400000218302 -0.000566987320780754
endloop
endfacet
facet normal 0 1 0
outer loop
vertex 0.00158682407345623 0.0014400000218302 -0.00149240391328931
vertex 0.00111697777174413 0.0014400000218302 -0.00132139376364648
vertex 0.00103015371132642 0.0014400000218302 -0.00117101008072495
endloop
endfacet
facet normal 0 1 0
outer loop
vertex 0.00111697777174413 0.0014400000218302 -0.00132139376364648
vertex 0.00158682407345623 0.0014400000218302 -0.00149240391328931
vertex 0.0014131759526208 0.0014400000218302 -0.00149240391328931
endloop
endfacet
facet normal 0 1 0
outer loop
vertex 0.00103015371132642 0.0014400000218302 -0.000828989956062287
vertex 0.00196984619833529 0.0014400000218302 -0.00117101008072495
vertex 0.0018830222543329 0.0014400000218302 -0.00132139376364648
endloop
endfacet
facet normal 0 1 0
outer loop
vertex 0.00196984619833529 0.0014400000218302 -0.000828989956062287
vertex 0.0014131759526208 0.0014400000218302 -0.000507596123497933
vertex 0.00158682407345623 0.0014400000218302 -0.000507596123497933
endloop
endfacet
facet normal 0 1 0
outer loop
vertex 0.00196984619833529 0.0014400000218302 -0.000828989956062287
vertex 0.00103015371132642 0.0014400000218302 -0.000828989956062287
vertex 0.00111697777174413 0.0014400000218302 -0.000678606214933097
endloop
endfacet
facet normal 0 1 0
outer loop
vertex 0.0014131759526208 0.0014400000218302 -0.00149240391328931
vertex 0.00124999997206032 0.0014400000218302 -0.00143301265779883
vertex 0.00111697777174413 0.0014400000218302 -0.00132139376364648
endloop
endfacet
facet normal 0 1 0
outer loop
vertex 0.0018830222543329 0.0014400000218302 -0.00132139376364648
vertex 0.00175000005401671 0.0014400000218302 -0.00143301265779883
vertex 0.00103015371132642 0.0014400000218302 -0.000828989956062287
endloop
endfacet
facet normal 0 1 0
outer loop
vertex 0.00103015371132642 0.0014400000218302 -0.000828989956062287
vertex 0.00196984619833529 0.0014400000218302 -0.000828989956062287
vertex 0.0020000000949949 0.0014400000218302 -0.00100000004749745
endloop
endfacet
facet normal 0 1 0
outer loop
vertex 0.00124999997206032 0.0014400000218302 -0.000566987320780754
vertex 0.0014131759526208 0.0014400000218302 -0.000507596123497933
vertex 0.00196984619833529 0.0014400000218302 -0.000828989956062287
endloop
endfacet
facet normal 0 1 0
outer loop
vertex 0.00175000005401671 0.0014400000218302 -0.00143301265779883
vertex 0.00158682407345623 0.0014400000218302 -0.00149240391328931
vertex 0.00103015371132642 0.0014400000218302 -0.000828989956062287
endloop
endfacet
facet normal 0 1 0
outer loop
vertex 0.00175000005401671 0.0014400000218302 -0.000566987320780754
vertex 0.0018830222543329 0.0014400000218302 -0.000678606214933097
vertex 0.00196984619833529 0.0014400000218302 -0.000828989956062287
endloop
endfacet
facet normal 0 1 0
outer loop
vertex 0.0020000000949949 0.0014400000218302 -0.00100000004749745
vertex 0.00196984619833529 0.0014400000218302 -0.00117101008072495
vertex 0.00103015371132642 0.0014400000218302 -0.000828989956062287
endloop
endfacet
facet normal 0 1 0
outer loop
vertex 0.00100000004749745 0.0014400000218302 -0.00100000004749745
vertex 0.00103015371132642 0.0014400000218302 -0.000828989956062287
vertex 0.00158682407345623 0.0014400000218302 -0.00149240391328931
endloop
endfacet
facet normal 0 1 0
outer loop
vertex 0.0050301537849009 0.0014400000218302 -0.000828989956062287
vertex 0.00575000001117587 0.0014400000218302 -0.000566987320780754
vertex 0.00588302221149206 0.0014400000218302 -0.000678606214933097
endloop
endfacet
facet normal 0 1 0
outer loop
vertex 0.0050301537849009 0.0014400000218302 -0.000828989956062287
vertex 0.00524999992921948 0.0014400000218302 -0.000566987320780754
vertex 0.00541317602619529 0.0014400000218302 -0.000507596123497933
endloop
endfacet
facet normal 0 1 0
outer loop
vertex 0.0050301537849009 0.0014400000218302 -0.000828989956062287
vertex 0.00558682391420007 0.0014400000218302 -0.000507596123497933
vertex 0.00575000001117587 0.0014400000218302 -0.000566987320780754
endloop
endfacet
facet normal 0 1 0
outer loop
vertex 0.0050301537849009 0.0014400000218302 -0.000828989956062287
vertex 0.00511697772890329 0.0014400000218302 -0.000678606214933097
vertex 0.00524999992921948 0.0014400000218302 -0.000566987320780754
endloop
endfacet
facet normal 0 1 0
outer loop
vertex 0.00596984615549445 0.0014400000218302 -0.000828989956062287
vertex 0.00524999992921948 0.0014400000218302 -0.00143301265779883
vertex 0.00511697772890329 0.0014400000218302 -0.00132139376364648
endloop
endfacet
facet normal 0 1 0
outer loop
vertex 0.00596984615549445 0.0014400000218302 -0.000828989956062287
vertex 0.00558682391420007 0.0014400000218302 -0.00149240391328931
vertex 0.00541317602619529 0.0014400000218302 -0.00149240391328931
endloop
endfacet
facet normal 0 1 0
outer loop
vertex 0.00558682391420007 0.0014400000218302 -0.00149240391328931
vertex 0.00596984615549445 0.0014400000218302 -0.00117101008072495
vertex 0.00588302221149206 0.0014400000218302 -0.00132139376364648
endloop
endfacet
facet normal 0 1 0
outer loop
vertex 0.00558682391420007 0.0014400000218302 -0.00149240391328931
vertex 0.00596984615549445 0.0014400000218302 -0.000828989956062287
vertex 0.00600000005215406 0.0014400000218302 -0.00100000004749745
endloop
endfacet
facet normal 0 1 0
outer loop
vertex 0.00541317602619529 0.0014400000218302 -0.000507596123497933
vertex 0.00558682391420007 0.0014400000218302 -0.000507596123497933
vertex 0.0050301537849009 0.0014400000218302 -0.000828989956062287
endloop
endfacet
facet normal 0 1 0
outer loop
vertex 0.00596984615549445 0.0014400000218302 -0.000828989956062287
vertex 0.0050301537849009 0.0014400000218302 -0.00117101008072495
vertex 0.00499999988824129 0.0014400000218302 -0.00100000004749745
endloop
endfacet
facet normal 0 1 0
outer loop
vertex 0.00541317602619529 0.0014400000218302 -0.00149240391328931
vertex 0.00524999992921948 0.0014400000218302 -0.00143301265779883
vertex 0.00596984615549445 0.0014400000218302 -0.000828989956062287
endloop
endfacet
facet normal 0 1 0
outer loop
vertex 0.00600000005215406 0.0014400000218302 -0.00100000004749745
vertex 0.00596984615549445 0.0014400000218302 -0.00117101008072495
vertex 0.00558682391420007 0.0014400000218302 -0.00149240391328931
endloop
endfacet
facet normal 0 1 0
outer loop
vertex 0.00499999988824129 0.0014400000218302 -0.00100000004749745
vertex 0.0050301537849009 0.0014400000218302 -0.000828989956062287
vertex 0.00596984615549445 0.0014400000218302 -0.000828989956062287
endloop
endfacet
facet normal 0 1 0
outer loop
vertex 0.00588302221149206 0.0014400000218302 -0.00132139376364648
vertex 0.00575000001117587 0.0014400000218302 -0.00143301265779883
vertex 0.00558682391420007 0.0014400000218302 -0.00149240391328931
endloop
endfacet
facet normal 0 1 0
outer loop
vertex 0.00511697772890329 0.0014400000218302 -0.00132139376364648
vertex 0.0050301537849009 0.0014400000218302 -0.00117101008072495
vertex 0.00596984615549445 0.0014400000218302 -0.000828989956062287
endloop
endfacet
facet normal 0 1 0
outer loop
vertex 0.00588302221149206 0.0014400000218302 -0.000678606214933097
vertex 0.00596984615549445 0.0014400000218302 -0.000828989956062287
vertex 0.0050301537849009 0.0014400000218302 -0.000828989956062287
endloop
endfacet
facet normal 0 1 0
outer loop
vertex 0.00911697745323181 0.0014400000218302 -0.000678606214933097
vertex 0.00958682410418987 0.0014400000218302 -0.000507596123497933
vertex 0.00975000020116568 0.0014400000218302 -0.000566987320780754
endloop
endfacet
facet normal 0 1 0
outer loop
vertex 0.00958682410418987 0.0014400000218302 -0.000507596123497933
vertex 0.00911697745323181 0.0014400000218302 -0.000678606214933097
vertex 0.00925000011920929 0.0014400000218302 -0.000566987320780754
endloop
endfacet
facet normal 0 1 0
outer loop
vertex 0.00911697745323181 0.0014400000218302 -0.00132139376364648
vertex 0.00903015397489071 0.0014400000218302 -0.00117101008072495
vertex 0.00899999961256981 0.0014400000218302 -0.00100000004749745
endloop
endfacet
facet normal 0 1 0
outer loop
vertex 0.00903015397489071 0.0014400000218302 -0.000828989956062287
vertex 0.00941317621618509 0.0014400000218302 -0.00149240391328931
vertex 0.00925000011920929 0.0014400000218302 -0.00143301265779883
endloop
endfacet
facet normal 0 1 0
outer loop
vertex 0.00925000011920929 0.0014400000218302 -0.000566987320780754
vertex 0.00941317621618509 0.0014400000218302 -0.000507596123497933
vertex 0.00958682410418987 0.0014400000218302 -0.000507596123497933
endloop
endfacet
facet normal 0 1 0
outer loop
vertex 0.00925000011920929 0.0014400000218302 -0.00143301265779883
vertex 0.00911697745323181 0.0014400000218302 -0.00132139376364648
vertex 0.00903015397489071 0.0014400000218302 -0.000828989956062287
endloop
endfacet
facet normal 0 1 0
outer loop
vertex 0.00903015397489071 0.0014400000218302 -0.000828989956062287
vertex 0.00975000020116568 0.0014400000218302 -0.00143301265779883
vertex 0.00958682410418987 0.0014400000218302 -0.00149240391328931
endloop
endfacet
facet normal 0 1 0
outer loop
vertex 0.00911697745323181 0.0014400000218302 -0.000678606214933097
vertex 0.00996984634548426 0.0014400000218302 -0.000828989956062287
vertex 0.00999999977648258 0.0014400000218302 -0.00100000004749745
endloop
endfacet
facet normal 0 1 0
outer loop
vertex 0.00975000020116568 0.0014400000218302 -0.000566987320780754
vertex 0.00988302193582058 0.0014400000218302 -0.000678606214933097
vertex 0.00911697745323181 0.0014400000218302 -0.000678606214933097
endloop
endfacet
facet normal 0 1 0
outer loop
vertex 0.00958682410418987 0.0014400000218302 -0.00149240391328931
vertex 0.00941317621618509 0.0014400000218302 -0.00149240391328931
vertex 0.00903015397489071 0.0014400000218302 -0.000828989956062287
endloop
endfacet
facet normal 0 1 0
outer loop
vertex 0.00903015397489071 0.0014400000218302 -0.000828989956062287
vertex 0.00996984634548426 0.0014400000218302 -0.00117101008072495
vertex 0.00988302193582058 0.0014400000218302 -0.00132139376364648
endloop
endfacet
facet normal 0 1 0
outer loop
vertex 0.00988302193582058 0.0014400000218302 -0.000678606214933097
vertex 0.00996984634548426 0.0014400000218302 -0.000828989956062287
vertex 0.00911697745323181 0.0014400000218302 -0.000678606214933097
endloop
endfacet
facet normal 0 1 0
outer loop
vertex 0.00988302193582058 0.0014400000218302 -0.00132139376364648
vertex 0.00975000020116568 0.0014400000218302 -0.00143301265779883
vertex 0.00903015397489071 0.0014400000218302 -0.000828989956062287
endloop
endfacet
facet normal 0 1 0
outer loop
vertex 0.00996984634548426 0.0014400000218302 -0.00117101008072495
vertex 0.00903015397489071 0.0014400000218302 -0.000828989956062287
vertex 0.00911697745323181 0.0014400000218302 -0.000678606214933097
endloop
endfacet
facet normal 0 1 0
outer loop
vertex 0.00999999977648258 0.0014400000218302 -0.00100000004749745
vertex 0.00996984634548426 0.0014400000218302 -0.00117101008072495
vertex 0.00911697745323181 0.0014400000218302 -0.000678606214933097
endloop
endfacet
facet normal 0 1 0
outer loop
vertex 0.00899999961256981 0.0014400000218302 -0.00100000004749745
vertex 0.00903015397489071 0.0014400000218302 -0.000828989956062287
vertex 0.00911697745323181 0.0014400000218302 -0.00132139376364648
endloop
endfacet
facet normal 0 1 0
outer loop
vertex 0.0131169781088829 0.0014400000218302 -0.000678606214933097
vertex 0.0135868238285184 0.0014400000218302 -0.000507596123497933
vertex 0.0137499999254942 0.0014400000218302 -0.000566987320780754
endloop
endfacet
facet normal 0 1 0
outer loop
vertex 0.0135868238285184 0.0014400000218302 -0.000507596123497933
vertex 0.0131169781088829 0.0014400000218302 -0.000678606214933097
vertex 0.0132499998435378 0.0014400000218302 -0.000566987320780754
endloop
endfacet
facet normal 0 1 0
outer loop
vertex 0.0131169781088829 0.0014400000218302 -0.00132139376364648
vertex 0.0130301536992192 0.0014400000218302 -0.00117101008072495
vertex 0.0130000002682209 0.0014400000218302 -0.00100000004749745
endloop
endfacet
facet normal 0 1 0
outer loop
vertex 0.0130301536992192 0.0014400000218302 -0.000828989956062287
vertex 0.0134131759405136 0.0014400000218302 -0.00149240391328931
vertex 0.0132499998435378 0.0014400000218302 -0.00143301265779883
endloop
endfacet
facet normal 0 1 0
outer loop
vertex 0.0132499998435378 0.0014400000218302 -0.000566987320780754
vertex 0.0134131759405136 0.0014400000218302 -0.000507596123497933
vertex 0.0135868238285184 0.0014400000218302 -0.000507596123497933
endloop
endfacet
facet normal 0 1 0
outer loop
vertex 0.0132499998435378 0.0014400000218302 -0.00143301265779883
vertex 0.0131169781088829 0.0014400000218302 -0.00132139376364648
vertex 0.0130301536992192 0.0014400000218302 -0.000828989956062287
endloop
endfacet
facet normal 0 1 0
outer loop
vertex 0.0130301536992192 0.0014400000218302 -0.000828989956062287
vertex 0.0137499999254942 0.0014400000218302 -0.00143301265779883
vertex 0.0135868238285184 0.0014400000218302 -0.00149240391328931
endloop
endfacet
facet normal 0 1 0
outer loop
vertex 0.0131169781088829 0.0014400000218302 -0.000678606214933097
vertex 0.0139698460698128 0.0014400000218302 -0.000828989956062287
vertex 0.0140000004321337 0.0014400000218302 -0.00100000004749745
endloop
endfacet
facet normal 0 1 0
outer loop
vertex 0.0137499999254942 0.0014400000218302 -0.000566987320780754
vertex 0.0138830225914717 0.0014400000218302 -0.000678606214933097
vertex 0.0131169781088829 0.0014400000218302 -0.000678606214933097
endloop
endfacet
facet normal 0 1 0
outer loop
vertex 0.0135868238285184 0.0014400000218302 -0.00149240391328931
vertex 0.0134131759405136 0.0014400000218302 -0.00149240391328931
vertex 0.0130301536992192 0.0014400000218302 -0.000828989956062287
endloop
endfacet
facet normal 0 1 0
outer loop
vertex 0.0130301536992192 0.0014400000218302 -0.000828989956062287
vertex 0.0139698460698128 0.0014400000218302 -0.00117101008072495
vertex 0.0138830225914717 0.0014400000218302 -0.00132139376364648
endloop
endfacet
facet normal 0 1 0
outer loop
vertex 0.0138830225914717 0.0014400000218302 -0.000678606214933097
vertex 0.0139698460698128 0.0014400000218302 -0.000828989956062287
vertex 0.0131169781088829 0.0014400000218302 -0.000678606214933097
endloop
endfacet
facet normal 0 1 0
outer loop
vertex 0.0138830225914717 0.0014400000218302 -0.00132139376364648
vertex 0.0137499999254942 0.0014400000218302 -0.00143301265779883
vertex 0.0130301536992192 0.0014400000218302 -0.000828989956062287
endloop
endfacet
facet normal 0 1 0
outer loop
vertex 0.0139698460698128 0.0014400000218302 -0.00117101008072495
vertex 0.0130301536992192 0.0014400000218302 -0.000828989956062287
vertex 0.0131169781088829 0.0014400000218302 -0.000678606214933097
endloop
endfacet
facet normal 0 1 0
outer loop
vertex 0.0140000004321337 0.0014400000218302 -0.00100000004749745
vertex 0.0139698460698128 0.0014400000218302 -0.00117101008072495
vertex 0.0131169781088829 0.0014400000218302 -0.000678606214933097
endloop
endfacet
facet normal 0 1 0
outer loop
vertex 0.0130000002682209 0.0014400000218302 -0.00100000004749745
vertex 0.0130301536992192 0.0014400000218302 -0.000828989956062287
vertex 0.0131169781088829 0.0014400000218302 -0.00132139376364648
endloop
endfacet
endsolid COMSOL rendering object imp1
