solid COMSOL rendering object imp1
facet normal 0 1 0
outer loop
vertex 0.00396984629333019 0.0014400000218302 -0.0161710102111101
vertex 0.00374999991618097 0.0014400000218302 -0.0155669869855046
vertex 0.00388302211649716 0.0014400000218302 -0.0156786069273949
endloop
endfacet
facet normal 0 1 0
outer loop
vertex 0.00325000006705523 0.0014400000218302 -0.0155669869855046
vertex 0.00300000002607703 0.0014400000218302 -0.0160000007599592
vertex 0.003030153689906 0.0014400000218302 -0.0158289894461632
endloop
endfacet
facet normal 0 1 0
outer loop
vertex 0.00325000006705523 0.0014400000218302 -0.0155669869855046
vertex 0.00311697786673903 0.0014400000218302 -0.0163213945925236
vertex 0.003030153689906 0.0014400000218302 -0.0161710102111101
endloop
endfacet
facet normal 0 1 0
outer loop
vertex 0.00325000006705523 0.0014400000218302 -0.0155669869855046
vertex 0.00341317593120039 0.0014400000218302 -0.0164924040436745
vertex 0.00325000006705523 0.0014400000218302 -0.0164330136030912
endloop
endfacet
facet normal 0 1 0
outer loop
vertex 0.00388302211649716 0.0014400000218302 -0.0156786069273949
vertex 0.00396984629333019 0.0014400000218302 -0.0158289894461632
vertex 0.00396984629333019 0.0014400000218302 -0.0161710102111101
endloop
endfacet
facet normal 0 1 0
outer loop
vertex 0.003030153689906 0.0014400000218302 -0.0161710102111101
vertex 0.00300000002607703 0.0014400000218302 -0.0160000007599592
vertex 0.00325000006705523 0.0014400000218302 -0.0155669869855046
endloop
endfacet
facet normal 0 1 0
outer loop
vertex 0.00325000006705523 0.0014400000218302 -0.0155669869855046
vertex 0.00358682405203581 0.0014400000218302 -0.0164924040436745
vertex 0.00341317593120039 0.0014400000218302 -0.0164924040436745
endloop
endfacet
facet normal 0 1 0
outer loop
vertex 0.00396984629333019 0.0014400000218302 -0.0158289894461632
vertex 0.00400000018998981 0.0014400000218302 -0.0160000007599592
vertex 0.00396984629333019 0.0014400000218302 -0.0161710102111101
endloop
endfacet
facet normal 0 1 0
outer loop
vertex 0.00388302211649716 0.0014400000218302 -0.0163213945925236
vertex 0.00341317593120039 0.0014400000218302 -0.0155075965449214
vertex 0.00358682405203581 0.0014400000218302 -0.0155075965449214
endloop
endfacet
facet normal 0 1 0
outer loop
vertex 0.00325000006705523 0.0014400000218302 -0.0164330136030912
vertex 0.00311697786673903 0.0014400000218302 -0.0163213945925236
vertex 0.00325000006705523 0.0014400000218302 -0.0155669869855046
endloop
endfacet
facet normal 0 1 0
outer loop
vertex 0.00341317593120039 0.0014400000218302 -0.0155075965449214
vertex 0.00388302211649716 0.0014400000218302 -0.0163213945925236
vertex 0.00374999991618097 0.0014400000218302 -0.0164330136030912
endloop
endfacet
facet normal 0 1 0
outer loop
vertex 0.00358682405203581 0.0014400000218302 -0.0155075965449214
vertex 0.00374999991618097 0.0014400000218302 -0.0155669869855046
vertex 0.00388302211649716 0.0014400000218302 -0.0163213945925236
endloop
endfacet
facet normal 0 1 0
outer loop
vertex 0.003030153689906 0.0014400000218302 -0.0158289894461632
vertex 0.00311697786673903 0.0014400000218302 -0.0156786069273949
vertex 0.00325000006705523 0.0014400000218302 -0.0155669869855046
endloop
endfacet
facet normal 0 1 0
outer loop
vertex 0.00396984629333019 0.0014400000218302 -0.0161710102111101
vertex 0.00388302211649716 0.0014400000218302 -0.0163213945925236
vertex 0.00374999991618097 0.0014400000218302 -0.0155669869855046
endloop
endfacet
facet normal 0 1 0
outer loop
vertex 0.00374999991618097 0.0014400000218302 -0.0164330136030912
vertex 0.00358682405203581 0.0014400000218302 -0.0164924040436745
vertex 0.00341317593120039 0.0014400000218302 -0.0155075965449214
endloop
endfacet
facet normal 0 1 0
outer loop
vertex 0.00325000006705523 0.0014400000218302 -0.0155669869855046
vertex 0.00341317593120039 0.0014400000218302 -0.0155075965449214
vertex 0.00358682405203581 0.0014400000218302 -0.0164924040436745
endloop
endfacet
facet normal 0 1 0
outer loop
vertex 0.00724999979138374 0.0014400000218302 -0.0155669869855046
vertex 0.00700000021606684 0.0014400000218302 -0.0160000007599592
vertex 0.00703015364706516 0.0014400000218302 -0.0158289894461632
endloop
endfacet
facet normal 0 1 0
outer loop
vertex 0.00724999979138374 0.0014400000218302 -0.0155669869855046
vertex 0.00711697759106755 0.0014400000218302 -0.0163213945925236
vertex 0.00703015364706516 0.0014400000218302 -0.0161710102111101
endloop
endfacet
facet normal 0 1 0
outer loop
vertex 0.00724999979138374 0.0014400000218302 -0.0155669869855046
vertex 0.00741317588835955 0.0014400000218302 -0.0164924040436745
vertex 0.00724999979138374 0.0014400000218302 -0.0164330136030912
endloop
endfacet
facet normal 0 1 0
outer loop
vertex 0.00774999987334013 0.0014400000218302 -0.0155669869855046
vertex 0.00796984601765871 0.0014400000218302 -0.0158289894461632
vertex 0.00800000037997961 0.0014400000218302 -0.0160000007599592
endloop
endfacet
facet normal 0 1 0
outer loop
vertex 0.00703015364706516 0.0014400000218302 -0.0161710102111101
vertex 0.00700000021606684 0.0014400000218302 -0.0160000007599592
vertex 0.00724999979138374 0.0014400000218302 -0.0155669869855046
endloop
endfacet
facet normal 0 1 0
outer loop
vertex 0.00724999979138374 0.0014400000218302 -0.0155669869855046
vertex 0.00758682424202561 0.0014400000218302 -0.0164924040436745
vertex 0.00741317588835955 0.0014400000218302 -0.0164924040436745
endloop
endfacet
facet normal 0 1 0
outer loop
vertex 0.00741317588835955 0.0014400000218302 -0.0155075965449214
vertex 0.00788302253931761 0.0014400000218302 -0.0163213945925236
vertex 0.00774999987334013 0.0014400000218302 -0.0164330136030912
endloop
endfacet
facet normal 0 1 0
outer loop
vertex 0.00774999987334013 0.0014400000218302 -0.0155669869855046
vertex 0.00788302253931761 0.0014400000218302 -0.0156786069273949
vertex 0.00796984601765871 0.0014400000218302 -0.0158289894461632
endloop
endfacet
facet normal 0 1 0
outer loop
vertex 0.00796984601765871 0.0014400000218302 -0.0161710102111101
vertex 0.00741317588835955 0.0014400000218302 -0.0155075965449214
vertex 0.00758682424202561 0.0014400000218302 -0.0155075965449214
endloop
endfacet
facet normal 0 1 0
outer loop
vertex 0.00724999979138374 0.0014400000218302 -0.0164330136030912
vertex 0.00711697759106755 0.0014400000218302 -0.0163213945925236
vertex 0.00724999979138374 0.0014400000218302 -0.0155669869855046
endloop
endfacet
facet normal 0 1 0
outer loop
vertex 0.00741317588835955 0.0014400000218302 -0.0155075965449214
vertex 0.00796984601765871 0.0014400000218302 -0.0161710102111101
vertex 0.00788302253931761 0.0014400000218302 -0.0163213945925236
endloop
endfacet
facet normal 0 1 0
outer loop
vertex 0.00758682424202561 0.0014400000218302 -0.0155075965449214
vertex 0.00774999987334013 0.0014400000218302 -0.0155669869855046
vertex 0.00796984601765871 0.0014400000218302 -0.0161710102111101
endloop
endfacet
facet normal 0 1 0
outer loop
vertex 0.00703015364706516 0.0014400000218302 -0.0158289894461632
vertex 0.00711697759106755 0.0014400000218302 -0.0156786069273949
vertex 0.00724999979138374 0.0014400000218302 -0.0155669869855046
endloop
endfacet
facet normal 0 1 0
outer loop
vertex 0.00800000037997961 0.0014400000218302 -0.0160000007599592
vertex 0.00796984601765871 0.0014400000218302 -0.0161710102111101
vertex 0.00774999987334013 0.0014400000218302 -0.0155669869855046
endloop
endfacet
facet normal 0 1 0
outer loop
vertex 0.00774999987334013 0.0014400000218302 -0.0164330136030912
vertex 0.00758682424202561 0.0014400000218302 -0.0164924040436745
vertex 0.00741317588835955 0.0014400000218302 -0.0155075965449214
endloop
endfacet
facet normal 0 1 0
outer loop
vertex 0.00724999979138374 0.0014400000218302 -0.0155669869855046
vertex 0.00741317588835955 0.0014400000218302 -0.0155075965449214
vertex 0.00758682424202561 0.0014400000218302 -0.0164924040436745
endloop
endfacet
facet normal 0 1 0
outer loop
vertex 0.0114131756126881 0.0014400000218302 -0.0164924040436745
vertex 0.0110301533713937 0.0014400000218302 -0.0161710102111101
vertex 0.0109999999403954 0.0014400000218302 -0.0160000007599592
endloop
endfacet
facet normal 0 1 0
outer loop
vertex 0.0110301533713937 0.0014400000218302 -0.0161710102111101
vertex 0.0114131756126881 0.0014400000218302 -0.0164924040436745
vertex 0.0112500004470348 0.0014400000218302 -0.0164330136030912
endloop
endfacet
facet normal 0 1 0
outer loop
vertex 0.0115868244320154 0.0014400000218302 -0.0155075965449214
vertex 0.0117499995976686 0.0014400000218302 -0.0164330136030912
vertex 0.0115868244320154 0.0014400000218302 -0.0164924040436745
endloop
endfacet
facet normal 0 1 0
outer loop
vertex 0.0117499995976686 0.0014400000218302 -0.0155669869855046
vertex 0.0119698466733098 0.0014400000218302 -0.0158289894461632
vertex 0.0120000001043081 0.0014400000218302 -0.0160000007599592
endloop
endfacet
facet normal 0 1 0
outer loop
vertex 0.0114131756126881 0.0014400000218302 -0.0164924040436745
vertex 0.0110301533713937 0.0014400000218302 -0.0158289894461632
vertex 0.0111169777810574 0.0014400000218302 -0.0156786069273949
endloop
endfacet
facet normal 0 1 0
outer loop
vertex 0.0112500004470348 0.0014400000218302 -0.0164330136030912
vertex 0.0111169777810574 0.0014400000218302 -0.0163213945925236
vertex 0.0110301533713937 0.0014400000218302 -0.0161710102111101
endloop
endfacet
facet normal 0 1 0
outer loop
vertex 0.0115868244320154 0.0014400000218302 -0.0155075965449214
vertex 0.0118830222636461 0.0014400000218302 -0.0163213945925236
vertex 0.0117499995976686 0.0014400000218302 -0.0164330136030912
endloop
endfacet
facet normal 0 1 0
outer loop
vertex 0.0117499995976686 0.0014400000218302 -0.0155669869855046
vertex 0.0118830222636461 0.0014400000218302 -0.0156786069273949
vertex 0.0119698466733098 0.0014400000218302 -0.0158289894461632
endloop
endfacet
facet normal 0 1 0
outer loop
vertex 0.0114131756126881 0.0014400000218302 -0.0164924040436745
vertex 0.0112500004470348 0.0014400000218302 -0.0155669869855046
vertex 0.0114131756126881 0.0014400000218302 -0.0155075965449214
endloop
endfacet
facet normal 0 1 0
outer loop
vertex 0.0109999999403954 0.0014400000218302 -0.0160000007599592
vertex 0.0110301533713937 0.0014400000218302 -0.0158289894461632
vertex 0.0114131756126881 0.0014400000218302 -0.0164924040436745
endloop
endfacet
facet normal 0 1 0
outer loop
vertex 0.0115868244320154 0.0014400000218302 -0.0155075965449214
vertex 0.0119698466733098 0.0014400000218302 -0.0161710102111101
vertex 0.0118830222636461 0.0014400000218302 -0.0163213945925236
endloop
endfacet
facet normal 0 1 0
outer loop
vertex 0.0119698466733098 0.0014400000218302 -0.0161710102111101
vertex 0.0115868244320154 0.0014400000218302 -0.0155075965449214
vertex 0.0117499995976686 0.0014400000218302 -0.0155669869855046
endloop
endfacet
facet normal 0 1 0
outer loop
vertex 0.0111169777810574 0.0014400000218302 -0.0156786069273949
vertex 0.0112500004470348 0.0014400000218302 -0.0155669869855046
vertex 0.0114131756126881 0.0014400000218302 -0.0164924040436745
endloop
endfacet
facet normal 0 1 0
outer loop
vertex 0.0120000001043081 0.0014400000218302 -0.0160000007599592
vertex 0.0119698466733098 0.0014400000218302 -0.0161710102111101
vertex 0.0117499995976686 0.0014400000218302 -0.0155669869855046
endloop
endfacet
facet normal 0 1 0
outer loop
vertex 0.0115868244320154 0.0014400000218302 -0.0164924040436745
vertex 0.0114131756126881 0.0014400000218302 -0.0164924040436745
vertex 0.0115868244320154 0.0014400000218302 -0.0155075965449214
endloop
endfacet
facet normal 0 1 0
outer loop
vertex 0.0114131756126881 0.0014400000218302 -0.0155075965449214
vertex 0.0115868244320154 0.0014400000218302 -0.0155075965449214
vertex 0.0114131756126881 0.0014400000218302 -0.0164924040436745
endloop
endfacet
endsolid COMSOL rendering object imp1
