solid COMSOL rendering object imp1
facet normal 0 1 0
outer loop
vertex 0.0136710098013282 0.00141999998595566 -0.0164698455482721
vertex 0.0139924036338925 0.00141999998595566 -0.0160868242383003
vertex 0.0139330122619867 0.00141999998595566 -0.0162499994039536
endloop
endfacet
facet normal 0 1 0
outer loop
vertex 0.0136710098013282 0.00141999998595566 -0.0164698455482721
vertex 0.0136710098013282 0.00141999998595566 -0.0155301541090012
vertex 0.0138213941827416 0.00141999998595566 -0.0156169775873423
endloop
endfacet
facet normal 0 1 0
outer loop
vertex 0.0136710098013282 0.00141999998595566 -0.0164698455482721
vertex 0.0139924036338925 0.00141999998595566 -0.015913175418973
vertex 0.0139924036338925 0.00141999998595566 -0.0160868242383003
endloop
endfacet
facet normal 0 1 0
outer loop
vertex 0.0138213941827416 0.00141999998595566 -0.0156169775873423
vertex 0.0139330122619867 0.00141999998595566 -0.0157500002533197
vertex 0.0136710098013282 0.00141999998595566 -0.0164698455482721
endloop
endfacet
facet normal 0 1 0
outer loop
vertex 0.00132898997981101 0.00141999998595566 -0.0155301541090012
vertex 0.00100759614724666 0.00141999998595566 -0.015913175418973
vertex 0.00106698728632182 0.00141999998595566 -0.0157500002533197
endloop
endfacet
facet normal 0 1 0
outer loop
vertex 0.00132898997981101 0.00141999998595566 -0.0155301541090012
vertex 0.00132898997981101 0.00141999998595566 -0.0164698455482721
vertex 0.00117860618047416 0.00141999998595566 -0.016383022069931
endloop
endfacet
facet normal 0 1 0
outer loop
vertex 0.0139330122619867 0.00141999998595566 -0.0157500002533197
vertex 0.0139924036338925 0.00141999998595566 -0.015913175418973
vertex 0.0136710098013282 0.00141999998595566 -0.0164698455482721
endloop
endfacet
facet normal 0 1 0
outer loop
vertex 0.00132898997981101 0.00141999998595566 -0.0155301541090012
vertex 0.00100759614724666 0.00141999998595566 -0.0160868242383003
vertex 0.00100759614724666 0.00141999998595566 -0.015913175418973
endloop
endfacet
facet normal 0 1 0
outer loop
vertex 0.00117860618047416 0.00141999998595566 -0.016383022069931
vertex 0.00106698728632182 0.00141999998595566 -0.0162499994039536
vertex 0.00132898997981101 0.00141999998595566 -0.0155301541090012
endloop
endfacet
facet normal 0 1 0
outer loop
vertex 0.0139330122619867 0.00141999998595566 -0.0162499994039536
vertex 0.0138213941827416 0.00141999998595566 -0.016383022069931
vertex 0.0136710098013282 0.00141999998595566 -0.0164698455482721
endloop
endfacet
facet normal 0 1 0
outer loop
vertex 0.00106698728632182 0.00141999998595566 -0.0162499994039536
vertex 0.00100759614724666 0.00141999998595566 -0.0160868242383003
vertex 0.00132898997981101 0.00141999998595566 -0.0155301541090012
endloop
endfacet
facet normal 0 1 0
outer loop
vertex 0.0135000003501773 0.00141999998595566 -0.016499999910593
vertex 0.0135000003501773 0.00141999998595566 -0.0154999997466803
vertex 0.0136710098013282 0.00141999998595566 -0.0155301541090012
endloop
endfacet
facet normal 0 1 0
outer loop
vertex 0.00150000001303852 0.00141999998595566 -0.0154999997466803
vertex 0.0135000003501773 0.00141999998595566 -0.0154999997466803
vertex 0.0135000003501773 0.00141999998595566 -0.016499999910593
endloop
endfacet
facet normal 0 1 0
outer loop
vertex 0.00106698728632182 0.00141999998595566 -0.0157500002533197
vertex 0.00117860618047416 0.00141999998595566 -0.0156169775873423
vertex 0.00132898997981101 0.00141999998595566 -0.0155301541090012
endloop
endfacet
facet normal 0 1 0
outer loop
vertex 0.0135000003501773 0.00141999998595566 -0.016499999910593
vertex 0.00150000001303852 0.00141999998595566 -0.016499999910593
vertex 0.00150000001303852 0.00141999998595566 -0.0154999997466803
endloop
endfacet
facet normal 0 1 0
outer loop
vertex 0.00150000001303852 0.00141999998595566 -0.0154999997466803
vertex 0.00150000001303852 0.00141999998595566 -0.016499999910593
vertex 0.00132898997981101 0.00141999998595566 -0.0164698455482721
endloop
endfacet
facet normal 0 1 0
outer loop
vertex 0.00132898997981101 0.00141999998595566 -0.0155301541090012
vertex 0.00150000001303852 0.00141999998595566 -0.0154999997466803
vertex 0.00132898997981101 0.00141999998595566 -0.0164698455482721
endloop
endfacet
facet normal 0 1 0
outer loop
vertex 0.0136710098013282 0.00141999998595566 -0.0164698455482721
vertex 0.0135000003501773 0.00141999998595566 -0.016499999910593
vertex 0.0136710098013282 0.00141999998595566 -0.0155301541090012
endloop
endfacet
endsolid COMSOL rendering object imp1
