solid COMSOL rendering object imp1
facet normal 0 1 0
outer loop
vertex 0.0139330122619867 0.00141999998595566 -0.00124999997206032
vertex 0.0139330122619867 0.00141999998595566 -0.000750000006519258
vertex 0.0139924036338925 0.00141999998595566 -0.000913175928872079
endloop
endfacet
facet normal 0 1 0
outer loop
vertex 0.0139924036338925 0.00141999998595566 -0.000913175928872079
vertex 0.0139924036338925 0.00141999998595566 -0.00108682410791516
vertex 0.0139330122619867 0.00141999998595566 -0.00124999997206032
endloop
endfacet
facet normal 0 1 0
outer loop
vertex 0.0138213941827416 0.00141999998595566 -0.00138302217237651
vertex 0.0136710098013282 0.00141999998595566 -0.000530153687577695
vertex 0.0138213941827416 0.00141999998595566 -0.000616977806203067
endloop
endfacet
facet normal 0 1 0
outer loop
vertex 0.0136710098013282 0.00141999998595566 -0.000530153687577695
vertex 0.0138213941827416 0.00141999998595566 -0.00138302217237651
vertex 0.0136710098013282 0.00141999998595566 -0.00146984634920955
endloop
endfacet
facet normal 0 1 0
outer loop
vertex 0.0138213941827416 0.00141999998595566 -0.000616977806203067
vertex 0.0139330122619867 0.00141999998595566 -0.000750000006519258
vertex 0.0138213941827416 0.00141999998595566 -0.00138302217237651
endloop
endfacet
facet normal 0 1 0
outer loop
vertex 0.00150000001303852 0.00141999998595566 -0.000500000023748726
vertex 0.00100759614724666 0.00141999998595566 -0.00108682410791516
vertex 0.00100759614724666 0.00141999998595566 -0.000913175928872079
endloop
endfacet
facet normal 0 1 0
outer loop
vertex 0.0139330122619867 0.00141999998595566 -0.00124999997206032
vertex 0.0138213941827416 0.00141999998595566 -0.00138302217237651
vertex 0.0139330122619867 0.00141999998595566 -0.000750000006519258
endloop
endfacet
facet normal 0 1 0
outer loop
vertex 0.00106698728632182 0.00141999998595566 -0.000750000006519258
vertex 0.00117860618047416 0.00141999998595566 -0.000616977806203067
vertex 0.00132898997981101 0.00141999998595566 -0.000530153687577695
endloop
endfacet
facet normal 0 1 0
outer loop
vertex 0.00150000001303852 0.00141999998595566 -0.000500000023748726
vertex 0.00106698728632182 0.00141999998595566 -0.00124999997206032
vertex 0.00100759614724666 0.00141999998595566 -0.00108682410791516
endloop
endfacet
facet normal 0 1 0
outer loop
vertex 0.00150000001303852 0.00141999998595566 -0.000500000023748726
vertex 0.00132898997981101 0.00141999998595566 -0.00146984634920955
vertex 0.00117860618047416 0.00141999998595566 -0.00138302217237651
endloop
endfacet
facet normal 0 1 0
outer loop
vertex 0.0135000003501773 0.00141999998595566 -0.00150000001303852
vertex 0.0135000003501773 0.00141999998595566 -0.000500000023748726
vertex 0.0136710098013282 0.00141999998595566 -0.000530153687577695
endloop
endfacet
facet normal 0 1 0
outer loop
vertex 0.00150000001303852 0.00141999998595566 -0.000500000023748726
vertex 0.0135000003501773 0.00141999998595566 -0.000500000023748726
vertex 0.0135000003501773 0.00141999998595566 -0.00150000001303852
endloop
endfacet
facet normal 0 1 0
outer loop
vertex 0.00100759614724666 0.00141999998595566 -0.000913175928872079
vertex 0.00106698728632182 0.00141999998595566 -0.000750000006519258
vertex 0.00150000001303852 0.00141999998595566 -0.000500000023748726
endloop
endfacet
facet normal 0 1 0
outer loop
vertex 0.00150000001303852 0.00141999998595566 -0.000500000023748726
vertex 0.00150000001303852 0.00141999998595566 -0.00150000001303852
vertex 0.00132898997981101 0.00141999998595566 -0.00146984634920955
endloop
endfacet
facet normal 0 1 0
outer loop
vertex 0.0135000003501773 0.00141999998595566 -0.00150000001303852
vertex 0.00150000001303852 0.00141999998595566 -0.00150000001303852
vertex 0.00150000001303852 0.00141999998595566 -0.000500000023748726
endloop
endfacet
facet normal 0 1 0
outer loop
vertex 0.00117860618047416 0.00141999998595566 -0.00138302217237651
vertex 0.00106698728632182 0.00141999998595566 -0.00124999997206032
vertex 0.00150000001303852 0.00141999998595566 -0.000500000023748726
endloop
endfacet
facet normal 0 1 0
outer loop
vertex 0.00132898997981101 0.00141999998595566 -0.000530153687577695
vertex 0.00150000001303852 0.00141999998595566 -0.000500000023748726
vertex 0.00106698728632182 0.00141999998595566 -0.000750000006519258
endloop
endfacet
facet normal 0 1 0
outer loop
vertex 0.0136710098013282 0.00141999998595566 -0.00146984634920955
vertex 0.0135000003501773 0.00141999998595566 -0.00150000001303852
vertex 0.0136710098013282 0.00141999998595566 -0.000530153687577695
endloop
endfacet
endsolid COMSOL rendering object imp1
