solid COMSOL rendering object imp1
facet normal -1 0 0
outer loop
vertex 0 0.000419999996665865 -0.017000000923872
vertex 0 0 -0.017000000923872
vertex 0 0 0
endloop
endfacet
facet normal -1 0 0
outer loop
vertex 0 0 0
vertex 0 0.000419999996665865 0
vertex 0 0.000419999996665865 -0.017000000923872
endloop
endfacet
facet normal 0 0 -1
outer loop
vertex 0.0149999996647239 0.000419999996665865 -0.017000000923872
vertex 0.0149999996647239 0 -0.017000000923872
vertex 0 0 -0.017000000923872
endloop
endfacet
facet normal 0 0 -1
outer loop
vertex 0 0 -0.017000000923872
vertex 0 0.000419999996665865 -0.017000000923872
vertex 0.0149999996647239 0.000419999996665865 -0.017000000923872
endloop
endfacet
facet normal 0 0 1
outer loop
vertex 0 0.000419999996665865 0
vertex 0 0 0
vertex 0.0149999996647239 0 0
endloop
endfacet
facet normal 0 0 1
outer loop
vertex 0.0149999996647239 0 0
vertex 0.0149999996647239 0.000419999996665865 0
vertex 0 0.000419999996665865 0
endloop
endfacet
facet normal -0.114006720483303 0 -0.979897499084473
outer loop
vertex 0.00150000001303852 0.00141999998595566 -0.016499999910593
vertex 0.00150000001303852 0.000419999996665865 -0.016499999910593
vertex 0.00132898997981101 0.000419999996665865 -0.0164698455482721
endloop
endfacet
facet normal -0.442276000976562 0 -0.881809890270233
outer loop
vertex 0.00132898997981101 0.00141999998595566 -0.0164698455482721
vertex 0.00132898997981101 0.000419999996665865 -0.0164698455482721
vertex 0.00117860618047416 0.000419999996665865 -0.016383022069931
endloop
endfacet
facet normal -0.717200219631195 0 -0.67736291885376
outer loop
vertex 0.00117860618047416 0.00141999998595566 -0.016383022069931
vertex 0.00117860618047416 0.000419999996665865 -0.016383022069931
vertex 0.00106698728632182 0.000419999996665865 -0.0162499994039536
endloop
endfacet
facet normal -0.905619442462921 0 -0.391216039657593
outer loop
vertex 0.00106698728632182 0.00141999998595566 -0.0162499994039536
vertex 0.00106698728632182 0.000419999996665865 -0.0162499994039536
vertex 0.00100759614724666 0.000419999996665865 -0.0160868242383003
endloop
endfacet
facet normal -0.984807729721069 0 -0.0578827261924744
outer loop
vertex 0.00100759614724666 0.00141999998595566 -0.0160868242383003
vertex 0.00100759614724666 0.000419999996665865 -0.0160868242383003
vertex 0.00100759614724666 0.000419999996665865 -0.015913175418973
endloop
endfacet
facet normal -0.945213615894318 0 0.282432109117508
outer loop
vertex 0.00100759614724666 0.00141999998595566 -0.015913175418973
vertex 0.00100759614724666 0.000419999996665865 -0.015913175418973
vertex 0.00106698728632182 0.000419999996665865 -0.0157500002533197
endloop
endfacet
facet normal -0.791612803936005 0 0.58868145942688
outer loop
vertex 0.00106698728632182 0.00141999998595566 -0.0157500002533197
vertex 0.00106698728632182 0.000419999996665865 -0.0157500002533197
vertex 0.00117860618047416 0.000419999996665865 -0.0156169775873423
endloop
endfacet
facet normal -0.542531788349152 0 0.823927164077759
outer loop
vertex 0.00117860618047416 0.00141999998595566 -0.0156169775873423
vertex 0.00117860618047416 0.000419999996665865 -0.0156169775873423
vertex 0.00132898997981101 0.000419999996665865 -0.0155301541090012
endloop
endfacet
facet normal -0.228013440966606 0 0.95979505777359
outer loop
vertex 0.00132898997981101 0.00141999998595566 -0.0155301541090012
vertex 0.00132898997981101 0.000419999996665865 -0.0155301541090012
vertex 0.00150000001303852 0.000419999996665865 -0.0154999997466803
endloop
endfacet
facet normal -0.114006720483303 0 0.979897499084473
outer loop
vertex 0.00150000001303852 0.000419999996665865 -0.0154999997466803
vertex 0.00150000001303852 0.00141999998595566 -0.0154999997466803
vertex 0.00132898997981101 0.00141999998595566 -0.0155301541090012
endloop
endfacet
facet normal -0.442276000976562 0 0.881809890270233
outer loop
vertex 0.00132898997981101 0.000419999996665865 -0.0155301541090012
vertex 0.00132898997981101 0.00141999998595566 -0.0155301541090012
vertex 0.00117860618047416 0.00141999998595566 -0.0156169775873423
endloop
endfacet
facet normal -0.717200219631195 0 0.67736291885376
outer loop
vertex 0.00117860618047416 0.000419999996665865 -0.0156169775873423
vertex 0.00117860618047416 0.00141999998595566 -0.0156169775873423
vertex 0.00106698728632182 0.00141999998595566 -0.0157500002533197
endloop
endfacet
facet normal -0.905619442462921 0 0.391216039657593
outer loop
vertex 0.00106698728632182 0.000419999996665865 -0.0157500002533197
vertex 0.00106698728632182 0.00141999998595566 -0.0157500002533197
vertex 0.00100759614724666 0.00141999998595566 -0.015913175418973
endloop
endfacet
facet normal -0.984807729721069 0 0.0578827261924744
outer loop
vertex 0.00100759614724666 0.000419999996665865 -0.015913175418973
vertex 0.00100759614724666 0.00141999998595566 -0.015913175418973
vertex 0.00100759614724666 0.00141999998595566 -0.0160868242383003
endloop
endfacet
facet normal -0.945213615894318 0 -0.282432109117508
outer loop
vertex 0.00100759614724666 0.000419999996665865 -0.0160868242383003
vertex 0.00100759614724666 0.00141999998595566 -0.0160868242383003
vertex 0.00106698728632182 0.00141999998595566 -0.0162499994039536
endloop
endfacet
facet normal -0.791612803936005 0 -0.58868145942688
outer loop
vertex 0.00106698728632182 0.000419999996665865 -0.0162499994039536
vertex 0.00106698728632182 0.00141999998595566 -0.0162499994039536
vertex 0.00117860618047416 0.00141999998595566 -0.016383022069931
endloop
endfacet
facet normal -0.542531788349152 0 -0.823927164077759
outer loop
vertex 0.00117860618047416 0.000419999996665865 -0.016383022069931
vertex 0.00117860618047416 0.00141999998595566 -0.016383022069931
vertex 0.00132898997981101 0.00141999998595566 -0.0164698455482721
endloop
endfacet
facet normal -0.228013440966606 0 -0.95979505777359
outer loop
vertex 0.00132898997981101 0.000419999996665865 -0.0164698455482721
vertex 0.00132898997981101 0.00141999998595566 -0.0164698455482721
vertex 0.00150000001303852 0.00141999998595566 -0.016499999910593
endloop
endfacet
facet normal 0 0 -1
outer loop
vertex 0.0135000003501773 0.00141999998595566 -0.016499999910593
vertex 0.0135000003501773 0.000419999996665865 -0.016499999910593
vertex 0.00150000001303852 0.000419999996665865 -0.016499999910593
endloop
endfacet
facet normal 0 0 -1
outer loop
vertex 0.00150000001303852 0.000419999996665865 -0.016499999910593
vertex 0.00150000001303852 0.00141999998595566 -0.016499999910593
vertex 0.0135000003501773 0.00141999998595566 -0.016499999910593
endloop
endfacet
facet normal 0 0 1
outer loop
vertex 0.00150000001303852 0.00141999998595566 -0.0154999997466803
vertex 0.00150000001303852 0.000419999996665865 -0.0154999997466803
vertex 0.0135000003501773 0.000419999996665865 -0.0154999997466803
endloop
endfacet
facet normal 0 0 1
outer loop
vertex 0.0135000003501773 0.000419999996665865 -0.0154999997466803
vertex 0.0135000003501773 0.00141999998595566 -0.0154999997466803
vertex 0.00150000001303852 0.00141999998595566 -0.0154999997466803
endloop
endfacet
facet normal -0.114006720483303 0 -0.979897499084473
outer loop
vertex 0.00150000001303852 0.00141999998595566 -0.00150000001303852
vertex 0.00150000001303852 0.000419999996665865 -0.00150000001303852
vertex 0.00132898997981101 0.000419999996665865 -0.00146984634920955
endloop
endfacet
facet normal -0.442276000976562 0 -0.881809890270233
outer loop
vertex 0.00132898997981101 0.00141999998595566 -0.00146984634920955
vertex 0.00132898997981101 0.000419999996665865 -0.00146984634920955
vertex 0.00117860618047416 0.000419999996665865 -0.00138302217237651
endloop
endfacet
facet normal -0.717200219631195 0 -0.67736291885376
outer loop
vertex 0.00117860618047416 0.00141999998595566 -0.00138302217237651
vertex 0.00117860618047416 0.000419999996665865 -0.00138302217237651
vertex 0.00106698728632182 0.000419999996665865 -0.00124999997206032
endloop
endfacet
facet normal -0.905619442462921 0 -0.391216039657593
outer loop
vertex 0.00106698728632182 0.00141999998595566 -0.00124999997206032
vertex 0.00106698728632182 0.000419999996665865 -0.00124999997206032
vertex 0.00100759614724666 0.000419999996665865 -0.00108682410791516
endloop
endfacet
facet normal -0.984807729721069 0 -0.0578827261924744
outer loop
vertex 0.00100759614724666 0.00141999998595566 -0.00108682410791516
vertex 0.00100759614724666 0.000419999996665865 -0.00108682410791516
vertex 0.00100759614724666 0.000419999996665865 -0.000913175928872079
endloop
endfacet
facet normal -0.945213615894318 0 0.282432109117508
outer loop
vertex 0.00100759614724666 0.00141999998595566 -0.000913175928872079
vertex 0.00100759614724666 0.000419999996665865 -0.000913175928872079
vertex 0.00106698728632182 0.000419999996665865 -0.000750000006519258
endloop
endfacet
facet normal -0.791612803936005 0 0.58868145942688
outer loop
vertex 0.00106698728632182 0.00141999998595566 -0.000750000006519258
vertex 0.00106698728632182 0.000419999996665865 -0.000750000006519258
vertex 0.00117860618047416 0.000419999996665865 -0.000616977806203067
endloop
endfacet
facet normal -0.542531788349152 0 0.823927164077759
outer loop
vertex 0.00117860618047416 0.00141999998595566 -0.000616977806203067
vertex 0.00117860618047416 0.000419999996665865 -0.000616977806203067
vertex 0.00132898997981101 0.000419999996665865 -0.000530153687577695
endloop
endfacet
facet normal -0.228013440966606 0 0.95979505777359
outer loop
vertex 0.00132898997981101 0.00141999998595566 -0.000530153687577695
vertex 0.00132898997981101 0.000419999996665865 -0.000530153687577695
vertex 0.00150000001303852 0.000419999996665865 -0.000500000023748726
endloop
endfacet
facet normal -0.114006720483303 0 0.979897499084473
outer loop
vertex 0.00150000001303852 0.000419999996665865 -0.000500000023748726
vertex 0.00150000001303852 0.00141999998595566 -0.000500000023748726
vertex 0.00132898997981101 0.00141999998595566 -0.000530153687577695
endloop
endfacet
facet normal -0.442276000976562 0 0.881809890270233
outer loop
vertex 0.00132898997981101 0.000419999996665865 -0.000530153687577695
vertex 0.00132898997981101 0.00141999998595566 -0.000530153687577695
vertex 0.00117860618047416 0.00141999998595566 -0.000616977806203067
endloop
endfacet
facet normal -0.717200219631195 0 0.67736291885376
outer loop
vertex 0.00117860618047416 0.000419999996665865 -0.000616977806203067
vertex 0.00117860618047416 0.00141999998595566 -0.000616977806203067
vertex 0.00106698728632182 0.00141999998595566 -0.000750000006519258
endloop
endfacet
facet normal -0.905619442462921 0 0.391216039657593
outer loop
vertex 0.00106698728632182 0.000419999996665865 -0.000750000006519258
vertex 0.00106698728632182 0.00141999998595566 -0.000750000006519258
vertex 0.00100759614724666 0.00141999998595566 -0.000913175928872079
endloop
endfacet
facet normal -0.984807729721069 0 0.0578827261924744
outer loop
vertex 0.00100759614724666 0.000419999996665865 -0.000913175928872079
vertex 0.00100759614724666 0.00141999998595566 -0.000913175928872079
vertex 0.00100759614724666 0.00141999998595566 -0.00108682410791516
endloop
endfacet
facet normal -0.945213615894318 0 -0.282432109117508
outer loop
vertex 0.00100759614724666 0.000419999996665865 -0.00108682410791516
vertex 0.00100759614724666 0.00141999998595566 -0.00108682410791516
vertex 0.00106698728632182 0.00141999998595566 -0.00124999997206032
endloop
endfacet
facet normal -0.791612803936005 0 -0.58868145942688
outer loop
vertex 0.00106698728632182 0.000419999996665865 -0.00124999997206032
vertex 0.00106698728632182 0.00141999998595566 -0.00124999997206032
vertex 0.00117860618047416 0.00141999998595566 -0.00138302217237651
endloop
endfacet
facet normal -0.542531788349152 0 -0.823927164077759
outer loop
vertex 0.00117860618047416 0.000419999996665865 -0.00138302217237651
vertex 0.00117860618047416 0.00141999998595566 -0.00138302217237651
vertex 0.00132898997981101 0.00141999998595566 -0.00146984634920955
endloop
endfacet
facet normal -0.228013440966606 0 -0.95979505777359
outer loop
vertex 0.00132898997981101 0.000419999996665865 -0.00146984634920955
vertex 0.00132898997981101 0.00141999998595566 -0.00146984634920955
vertex 0.00150000001303852 0.00141999998595566 -0.00150000001303852
endloop
endfacet
facet normal 0 0 -1
outer loop
vertex 0.0135000003501773 0.00141999998595566 -0.00150000001303852
vertex 0.0135000003501773 0.000419999996665865 -0.00150000001303852
vertex 0.00150000001303852 0.000419999996665865 -0.00150000001303852
endloop
endfacet
facet normal 0 0 -1
outer loop
vertex 0.00150000001303852 0.000419999996665865 -0.00150000001303852
vertex 0.00150000001303852 0.00141999998595566 -0.00150000001303852
vertex 0.0135000003501773 0.00141999998595566 -0.00150000001303852
endloop
endfacet
facet normal 0 0 1
outer loop
vertex 0.00150000001303852 0.00141999998595566 -0.000500000023748726
vertex 0.00150000001303852 0.000419999996665865 -0.000500000023748726
vertex 0.0135000003501773 0.000419999996665865 -0.000500000023748726
endloop
endfacet
facet normal 0 0 1
outer loop
vertex 0.0135000003501773 0.000419999996665865 -0.000500000023748726
vertex 0.0135000003501773 0.00141999998595566 -0.000500000023748726
vertex 0.00150000001303852 0.00141999998595566 -0.000500000023748726
endloop
endfacet
facet normal 0.114006720483303 0 0.979897499084473
outer loop
vertex 0.0135000003501773 0.00141999998595566 -0.0154999997466803
vertex 0.0135000003501773 0.000419999996665865 -0.0154999997466803
vertex 0.0136710098013282 0.000419999996665865 -0.0155301541090012
endloop
endfacet
facet normal 0.442276000976562 0 0.881809890270233
outer loop
vertex 0.0136710098013282 0.00141999998595566 -0.0155301541090012
vertex 0.0136710098013282 0.000419999996665865 -0.0155301541090012
vertex 0.0138213941827416 0.000419999996665865 -0.0156169775873423
endloop
endfacet
facet normal 0.717200219631195 0 0.67736291885376
outer loop
vertex 0.0138213941827416 0.00141999998595566 -0.0156169775873423
vertex 0.0138213941827416 0.000419999996665865 -0.0156169775873423
vertex 0.0139330122619867 0.000419999996665865 -0.0157500002533197
endloop
endfacet
facet normal 0.905619442462921 0 0.391216039657593
outer loop
vertex 0.0139330122619867 0.00141999998595566 -0.0157500002533197
vertex 0.0139330122619867 0.000419999996665865 -0.0157500002533197
vertex 0.0139924036338925 0.000419999996665865 -0.015913175418973
endloop
endfacet
facet normal 0.984807729721069 0 0.0578827261924744
outer loop
vertex 0.0139924036338925 0.00141999998595566 -0.015913175418973
vertex 0.0139924036338925 0.000419999996665865 -0.015913175418973
vertex 0.0139924036338925 0.000419999996665865 -0.0160868242383003
endloop
endfacet
facet normal 0.945213615894318 0 -0.282432109117508
outer loop
vertex 0.0139924036338925 0.00141999998595566 -0.0160868242383003
vertex 0.0139924036338925 0.000419999996665865 -0.0160868242383003
vertex 0.0139330122619867 0.000419999996665865 -0.0162499994039536
endloop
endfacet
facet normal 0.791612803936005 0 -0.58868145942688
outer loop
vertex 0.0139330122619867 0.00141999998595566 -0.0162499994039536
vertex 0.0139330122619867 0.000419999996665865 -0.0162499994039536
vertex 0.0138213941827416 0.000419999996665865 -0.016383022069931
endloop
endfacet
facet normal 0.542531788349152 0 -0.823927164077759
outer loop
vertex 0.0138213941827416 0.00141999998595566 -0.016383022069931
vertex 0.0138213941827416 0.000419999996665865 -0.016383022069931
vertex 0.0136710098013282 0.000419999996665865 -0.0164698455482721
endloop
endfacet
facet normal 0.228013440966606 0 -0.95979505777359
outer loop
vertex 0.0136710098013282 0.00141999998595566 -0.0164698455482721
vertex 0.0136710098013282 0.000419999996665865 -0.0164698455482721
vertex 0.0135000003501773 0.000419999996665865 -0.016499999910593
endloop
endfacet
facet normal 0.114006720483303 0 -0.979897499084473
outer loop
vertex 0.0135000003501773 0.000419999996665865 -0.016499999910593
vertex 0.0135000003501773 0.00141999998595566 -0.016499999910593
vertex 0.0136710098013282 0.00141999998595566 -0.0164698455482721
endloop
endfacet
facet normal 0.442276000976562 0 -0.881809890270233
outer loop
vertex 0.0136710098013282 0.000419999996665865 -0.0164698455482721
vertex 0.0136710098013282 0.00141999998595566 -0.0164698455482721
vertex 0.0138213941827416 0.00141999998595566 -0.016383022069931
endloop
endfacet
facet normal 0.717200219631195 0 -0.67736291885376
outer loop
vertex 0.0138213941827416 0.000419999996665865 -0.016383022069931
vertex 0.0138213941827416 0.00141999998595566 -0.016383022069931
vertex 0.0139330122619867 0.00141999998595566 -0.0162499994039536
endloop
endfacet
facet normal 0.905619442462921 0 -0.391216039657593
outer loop
vertex 0.0139330122619867 0.000419999996665865 -0.0162499994039536
vertex 0.0139330122619867 0.00141999998595566 -0.0162499994039536
vertex 0.0139924036338925 0.00141999998595566 -0.0160868242383003
endloop
endfacet
facet normal 0.984807729721069 0 -0.0578827261924744
outer loop
vertex 0.0139924036338925 0.000419999996665865 -0.0160868242383003
vertex 0.0139924036338925 0.00141999998595566 -0.0160868242383003
vertex 0.0139924036338925 0.00141999998595566 -0.015913175418973
endloop
endfacet
facet normal 0.945213615894318 0 0.282432109117508
outer loop
vertex 0.0139924036338925 0.000419999996665865 -0.015913175418973
vertex 0.0139924036338925 0.00141999998595566 -0.015913175418973
vertex 0.0139330122619867 0.00141999998595566 -0.0157500002533197
endloop
endfacet
facet normal 0.791612803936005 0 0.58868145942688
outer loop
vertex 0.0139330122619867 0.000419999996665865 -0.0157500002533197
vertex 0.0139330122619867 0.00141999998595566 -0.0157500002533197
vertex 0.0138213941827416 0.00141999998595566 -0.0156169775873423
endloop
endfacet
facet normal 0.542531788349152 0 0.823927164077759
outer loop
vertex 0.0138213941827416 0.000419999996665865 -0.0156169775873423
vertex 0.0138213941827416 0.00141999998595566 -0.0156169775873423
vertex 0.0136710098013282 0.00141999998595566 -0.0155301541090012
endloop
endfacet
facet normal 0.228013440966606 0 0.95979505777359
outer loop
vertex 0.0136710098013282 0.000419999996665865 -0.0155301541090012
vertex 0.0136710098013282 0.00141999998595566 -0.0155301541090012
vertex 0.0135000003501773 0.00141999998595566 -0.0154999997466803
endloop
endfacet
facet normal 0.114006720483303 0 0.979897499084473
outer loop
vertex 0.0135000003501773 0.00141999998595566 -0.000500000023748726
vertex 0.0135000003501773 0.000419999996665865 -0.000500000023748726
vertex 0.0136710098013282 0.000419999996665865 -0.000530153687577695
endloop
endfacet
facet normal 0.442276000976562 0 0.881809890270233
outer loop
vertex 0.0136710098013282 0.00141999998595566 -0.000530153687577695
vertex 0.0136710098013282 0.000419999996665865 -0.000530153687577695
vertex 0.0138213941827416 0.000419999996665865 -0.000616977806203067
endloop
endfacet
facet normal 0.717200219631195 0 0.67736291885376
outer loop
vertex 0.0138213941827416 0.00141999998595566 -0.000616977806203067
vertex 0.0138213941827416 0.000419999996665865 -0.000616977806203067
vertex 0.0139330122619867 0.000419999996665865 -0.000750000006519258
endloop
endfacet
facet normal 0.905619442462921 0 0.391216039657593
outer loop
vertex 0.0139330122619867 0.00141999998595566 -0.000750000006519258
vertex 0.0139330122619867 0.000419999996665865 -0.000750000006519258
vertex 0.0139924036338925 0.000419999996665865 -0.000913175928872079
endloop
endfacet
facet normal 0.984807729721069 0 0.0578827261924744
outer loop
vertex 0.0139924036338925 0.00141999998595566 -0.000913175928872079
vertex 0.0139924036338925 0.000419999996665865 -0.000913175928872079
vertex 0.0139924036338925 0.000419999996665865 -0.00108682410791516
endloop
endfacet
facet normal 0.945213615894318 0 -0.282432109117508
outer loop
vertex 0.0139924036338925 0.00141999998595566 -0.00108682410791516
vertex 0.0139924036338925 0.000419999996665865 -0.00108682410791516
vertex 0.0139330122619867 0.000419999996665865 -0.00124999997206032
endloop
endfacet
facet normal 0.791612803936005 0 -0.58868145942688
outer loop
vertex 0.0139330122619867 0.00141999998595566 -0.00124999997206032
vertex 0.0139330122619867 0.000419999996665865 -0.00124999997206032
vertex 0.0138213941827416 0.000419999996665865 -0.00138302217237651
endloop
endfacet
facet normal 0.542531788349152 0 -0.823927164077759
outer loop
vertex 0.0138213941827416 0.00141999998595566 -0.00138302217237651
vertex 0.0138213941827416 0.000419999996665865 -0.00138302217237651
vertex 0.0136710098013282 0.000419999996665865 -0.00146984634920955
endloop
endfacet
facet normal 0.228013440966606 0 -0.95979505777359
outer loop
vertex 0.0136710098013282 0.00141999998595566 -0.00146984634920955
vertex 0.0136710098013282 0.000419999996665865 -0.00146984634920955
vertex 0.0135000003501773 0.000419999996665865 -0.00150000001303852
endloop
endfacet
facet normal 0.114006720483303 0 -0.979897499084473
outer loop
vertex 0.0135000003501773 0.000419999996665865 -0.00150000001303852
vertex 0.0135000003501773 0.00141999998595566 -0.00150000001303852
vertex 0.0136710098013282 0.00141999998595566 -0.00146984634920955
endloop
endfacet
facet normal 0.442276000976562 0 -0.881809890270233
outer loop
vertex 0.0136710098013282 0.000419999996665865 -0.00146984634920955
vertex 0.0136710098013282 0.00141999998595566 -0.00146984634920955
vertex 0.0138213941827416 0.00141999998595566 -0.00138302217237651
endloop
endfacet
facet normal 0.717200219631195 0 -0.67736291885376
outer loop
vertex 0.0138213941827416 0.000419999996665865 -0.00138302217237651
vertex 0.0138213941827416 0.00141999998595566 -0.00138302217237651
vertex 0.0139330122619867 0.00141999998595566 -0.00124999997206032
endloop
endfacet
facet normal 0.905619442462921 0 -0.391216039657593
outer loop
vertex 0.0139330122619867 0.000419999996665865 -0.00124999997206032
vertex 0.0139330122619867 0.00141999998595566 -0.00124999997206032
vertex 0.0139924036338925 0.00141999998595566 -0.00108682410791516
endloop
endfacet
facet normal 0.984807729721069 0 -0.0578827261924744
outer loop
vertex 0.0139924036338925 0.000419999996665865 -0.00108682410791516
vertex 0.0139924036338925 0.00141999998595566 -0.00108682410791516
vertex 0.0139924036338925 0.00141999998595566 -0.000913175928872079
endloop
endfacet
facet normal 0.945213615894318 0 0.282432109117508
outer loop
vertex 0.0139924036338925 0.000419999996665865 -0.000913175928872079
vertex 0.0139924036338925 0.00141999998595566 -0.000913175928872079
vertex 0.0139330122619867 0.00141999998595566 -0.000750000006519258
endloop
endfacet
facet normal 0.791612803936005 0 0.58868145942688
outer loop
vertex 0.0139330122619867 0.000419999996665865 -0.000750000006519258
vertex 0.0139330122619867 0.00141999998595566 -0.000750000006519258
vertex 0.0138213941827416 0.00141999998595566 -0.000616977806203067
endloop
endfacet
facet normal 0.542531788349152 0 0.823927164077759
outer loop
vertex 0.0138213941827416 0.000419999996665865 -0.000616977806203067
vertex 0.0138213941827416 0.00141999998595566 -0.000616977806203067
vertex 0.0136710098013282 0.00141999998595566 -0.000530153687577695
endloop
endfacet
facet normal 0.228013440966606 0 0.95979505777359
outer loop
vertex 0.0136710098013282 0.000419999996665865 -0.000530153687577695
vertex 0.0136710098013282 0.00141999998595566 -0.000530153687577695
vertex 0.0135000003501773 0.00141999998595566 -0.000500000023748726
endloop
endfacet
facet normal 1 0 0
outer loop
vertex 0.0149999996647239 0.000419999996665865 0
vertex 0.0149999996647239 0 0
vertex 0.0149999996647239 0 -0.017000000923872
endloop
endfacet
facet normal 1 0 0
outer loop
vertex 0.0149999996647239 0 -0.017000000923872
vertex 0.0149999996647239 0.000419999996665865 -0.017000000923872
vertex 0.0149999996647239 0.000419999996665865 0
endloop
endfacet
endsolid COMSOL rendering object imp1
